<svg width="72" height="72" viewBox="0 0 72 72" fill="none" xmlns="http://www.w3.org/2000/svg">
<circle cx="36" cy="36" r="36" fill="#DD2D1F"/>
<path d="M52.2 47.8799C48.6189 45.981 45.8722 44.9161 43.4269 44.5079L43.68 44.16C43.8 44.0399 43.86 43.86 43.8 43.68L43.2377 41.4308C44.7248 39.3285 45.5999 36.7002 45.5999 34.2V31.8H46.1999H47.3999C47.7599 31.8 47.9999 31.56 47.9999 31.2C47.9999 30.84 47.7599 30.6 47.3999 30.6H46.8V30.0001C46.8 25.2601 43.68 21.2401 38.9999 19.9201V19.8C38.9999 18.8399 38.22 18 37.2 18H34.8C33.8399 18 33 18.78 33 19.8V19.92C28.32 21.24 25.2 25.26 25.2 30V30.6H24.6C24.24 30.6 24 30.8399 24 31.1999C24 31.5599 24.24 31.7999 24.6 31.7999H25.8H26.4V34.1999C26.4 36.7001 27.2751 39.3284 28.7622 41.4308L28.2 43.68C28.2 43.8 28.2 44.0399 28.32 44.16L28.573 44.5079C26.1278 44.9162 23.381 45.981 19.8 47.8799C18.66 48.42 18 49.56 18 50.82V53.4C18 53.76 18.24 53.9999 18.6 53.9999H33H33.24H38.76H38.9999H53.4C53.76 53.9999 53.9999 53.76 53.9999 53.4V50.82C54 49.6199 53.2799 48.48 52.2 47.8799ZM35.6402 47.3246L36.0034 46.5074L36.9002 48.4803L37.4867 49.7999H34.5601L35.6402 47.3246ZM34.104 50.9999H37.8914L38.2343 52.7999H33.744L34.104 50.9999ZM42.2999 42.6L42.5399 43.68L41.927 44.5215C41.8879 44.5535 41.8517 44.5922 41.8199 44.6399L39.3243 48.0955L38.5324 49.1828L36.9148 45.5433C38.8483 45.3075 40.5743 44.3369 41.9683 42.942C41.9838 42.9267 41.9993 42.9116 42.0147 42.8961C42.0184 42.8923 42.0221 42.8885 42.0258 42.8848C42.1182 42.792 42.2097 42.6973 42.2999 42.6ZM41.5183 22.3884C41.5849 22.4327 41.6509 22.4777 41.7163 22.5236C42.4811 23.0935 43.1871 23.7612 43.74 24.48L40.98 25.02L41.5183 22.3884ZM31.02 25.02L28.26 24.48C28.8129 23.7611 29.519 23.0935 30.2838 22.5235C30.3491 22.4777 30.4151 22.4327 30.4817 22.3884L31.02 25.02ZM26.4 30C26.4 28.4034 26.8019 26.8972 27.5294 25.5808L31.68 26.4001C31.74 26.4001 31.74 26.4001 31.8 26.4001C31.98 26.4001 32.1001 26.3401 32.2801 26.28C32.4601 26.16 32.52 25.92 32.4601 25.74L31.6363 21.7312C32.0702 21.5225 32.5255 21.3432 33.0001 21.1958V22.8C33.0001 23.16 33.24 23.4 33.6 23.4C33.96 23.4 34.2 23.16 34.2 22.8V20.4V19.8C34.2 19.5 34.44 19.2 34.8 19.2H37.2C37.5 19.2 37.7999 19.44 37.7999 19.8V20.3999V22.8C37.7999 23.16 38.0399 23.3999 38.3999 23.3999C38.7599 23.3999 38.9999 23.16 38.9999 22.8V21.1958C39.4903 21.348 39.9603 21.5342 40.407 21.7519L39.5999 25.6801C39.5999 25.8601 39.6599 26.1 39.7799 26.2201C39.8999 26.3401 40.0199 26.4001 40.1999 26.4001C40.2599 26.4001 40.2599 26.4001 40.3199 26.4001L44.4436 25.5319C45.1882 26.8598 45.5999 28.3837 45.5999 30V30.6H44.9999H27H26.4001V30H26.4ZM27.6 31.8H44.3999V34.2C44.3999 36.8162 43.5025 39.1411 42.155 40.9083L42.1199 40.9199C42.06 40.9799 41.9999 41.04 41.94 41.0999C41.6381 41.5025 41.3195 41.8695 40.9866 42.2004C39.5738 43.5165 37.8887 44.3137 36.265 44.3927C36.1833 44.3576 36.0917 44.34 36 44.34C35.9077 44.34 35.8246 44.3581 35.7501 44.3935C34.7561 44.3479 33.7389 44.0329 32.7747 43.4939C31.7978 42.9327 30.8789 42.1237 30.0599 41.0999C29.9999 41.04 29.9399 40.9799 29.8799 40.9199L29.8449 40.9083C28.4974 39.1411 27.5999 36.8162 27.5999 34.2V31.8H27.6ZM35.0851 45.5435L33.4676 49.183L32.6757 48.0956L30.18 44.6401C30.1609 44.621 30.1398 44.602 30.1179 44.5834L29.46 43.68L29.7 42.6C29.7813 42.6876 29.8638 42.773 29.9471 42.857C31.3556 44.2974 33.1124 45.3029 35.0851 45.5435ZM19.2 50.82C19.2 50.04 19.62 49.3199 20.34 48.9599C24.1645 46.9281 26.9177 45.9084 29.3702 45.6038L32.9507 50.5269L32.4961 52.7999H19.2V50.82ZM52.8 52.8H39.504L39.0494 50.5271L42.6687 45.5506C45.1126 45.9194 47.915 46.9384 51.66 48.9C52.38 49.32 52.8 50.0401 52.8 50.82V52.8Z" fill="white"/>
</svg>
