<svg width="72" height="72" viewBox="0 0 72 72" fill="none" xmlns="http://www.w3.org/2000/svg">
<circle cx="36" cy="36" r="36" fill="#DD2D1F"/>
<path d="M44.9984 33.0001H29.9984C29.6672 33.0001 29.3984 33.2683 29.3984 33.6001C29.3984 33.9319 29.6672 34.2001 29.9984 34.2001H44.9984C45.3296 34.2001 45.5984 33.9319 45.5984 33.6001C45.5984 33.2683 45.3296 33.0001 44.9984 33.0001Z" fill="white"/>
<path d="M29.9984 29.3999H35.9984C36.3296 29.3999 36.5984 29.1317 36.5984 28.7999C36.5984 28.4682 36.3296 28.2 35.9984 28.2H29.9984C29.6672 28.2 29.3984 28.4682 29.3984 28.7999C29.3984 29.1317 29.6672 29.3999 29.9984 29.3999Z" fill="white"/>
<path d="M44.9984 37.7999H29.9984C29.6672 37.7999 29.3984 38.0681 29.3984 38.3999C29.3984 38.7317 29.6672 38.9999 29.9984 38.9999H44.9984C45.3296 38.9999 45.5984 38.7317 45.5984 38.3999C45.5984 38.0681 45.3296 37.7999 44.9984 37.7999Z" fill="white"/>
<path d="M44.9984 42.6H29.9984C29.6672 42.6 29.3984 42.8682 29.3984 43.2C29.3984 43.5318 29.6672 43.8 29.9984 43.8H44.9984C45.3296 43.8 45.5984 43.5318 45.5984 43.2C45.5984 42.8682 45.3296 42.6 44.9984 42.6Z" fill="white"/>
<path d="M44.9984 47.4H29.9984C29.6672 47.4 29.3984 47.6682 29.3984 48C29.3984 48.3318 29.6672 48.6 29.9984 48.6H44.9984C45.3296 48.6 45.5984 48.3318 45.5984 48C45.5984 47.6682 45.3296 47.4 44.9984 47.4Z" fill="white"/>
<path d="M47.3996 26.7516V18H21.5996V51H24.5996V54H50.3996V29.7516L47.3996 26.7516ZM41.9996 23.0484L47.3996 28.4484L48.3512 29.4H41.9996V23.0484ZM22.7996 49.8V19.2H46.1996V25.5516L41.648 21H24.5996V49.8H22.7996ZM25.7996 52.8V51V22.2H40.7996V30.6H49.1996V52.8H25.7996Z" fill="white"/>
</svg>
