<svg width="72" height="72" viewBox="0 0 72 72" fill="none" xmlns="http://www.w3.org/2000/svg">
<circle cx="36" cy="36" r="36" fill="#DD2D1F"/>
<path d="M50.2037 19.749H26.9248C24.9046 19.749 23.2609 21.3773 23.2609 23.3723L23.1109 43.8705H18.5679C18.246 43.8705 18 44.1551 18 44.4771V47.2981C18 49.939 20.1134 52.0988 22.664 52.2172V52.251H42.2672V52.2129C42.4129 52.2189 42.5012 52.251 42.6014 52.251H42.6153C45.3356 52.2351 47.5284 50.0178 47.5142 47.2976V29.3685H53.4321C53.754 29.3685 54 29.077 54 28.7553V23.5792C54.0037 21.4755 52.3074 19.7641 50.2037 19.749V19.749ZM22.919 51.0851H22.915C20.8412 51.0851 19.166 49.3711 19.166 47.2976V45.0365H37.6761V47.2879C37.6715 48.6002 38.1899 49.8601 39.1165 50.7893C39.215 50.8884 39.3181 50.9393 39.4234 51.0851H22.919ZM46.3482 47.297C46.3482 49.3711 44.6891 51.0851 42.6145 51.0851H42.6025C40.5176 51.07 38.8373 49.3731 38.8421 47.2882V44.4771C38.8438 44.1506 38.5856 43.8819 38.2591 43.8705H24.2769L24.4269 23.3762C24.4269 22.0204 25.5473 20.915 26.9248 20.915H47.4512C46.7868 21.6438 46.3482 22.5658 46.3482 23.5949V47.297ZM52.834 23.5895V28.2025H47.5142V23.5937C47.5142 22.1345 48.728 20.915 50.1866 20.915H50.2028C51.6652 20.9295 52.8408 22.1226 52.834 23.5852V23.5895Z" fill="white"/>
<path d="M31.6905 34.099L34.6963 36.154C34.8924 36.2892 35.1517 36.2892 35.3479 36.154L38.3446 34.0996C39.3856 33.3893 40.1545 31.9045 40.1545 30.6454V26.4876C40.1607 26.2679 40.0395 26.064 39.8436 25.9641L35.267 23.713C35.1065 23.6333 34.918 23.6333 34.7575 23.713L30.1894 25.9579C29.9936 26.0578 29.8726 26.2616 29.8792 26.4814V30.6454C29.8792 31.9045 30.6497 33.3893 31.6905 34.099ZM31.0452 26.8452L35.0168 24.8855L38.9885 26.8506V30.6454C38.9885 31.5236 38.4129 32.6407 37.6867 33.1357L35.01 34.9664L32.3438 33.136C31.6176 32.6404 31.0452 31.5236 31.0452 30.6454V26.8452Z" fill="white"/>
<path d="M34.0304 31.5256C34.1392 31.6366 34.2878 31.6995 34.4432 31.7003H34.4446C34.5995 31.6998 34.7478 31.6377 34.8568 31.5278L37.176 29.2078C37.404 28.9801 37.404 28.6106 37.1763 28.3828C36.9488 28.1548 36.5793 28.1548 36.3516 28.3826L34.4466 30.2873L33.6851 29.5184C33.4582 29.2895 33.089 29.2878 32.8602 29.5147C32.6313 29.7416 32.6299 30.1108 32.8565 30.3396L34.0304 31.5256Z" fill="white"/>
<path d="M42.2673 37.8219H28.2754C27.9534 37.8219 27.6924 38.0829 27.6924 38.4049C27.6924 38.7269 27.9534 38.9879 28.2754 38.9879H42.2673C42.5892 38.9879 42.8503 38.7269 42.8503 38.4049C42.8503 38.0829 42.5892 37.8219 42.2673 37.8219Z" fill="white"/>
<path d="M42.2673 40.5182H28.2754C27.9534 40.5182 27.6924 40.7792 27.6924 41.1012C27.6924 41.4231 27.9534 41.6842 28.2754 41.6842H42.2673C42.5892 41.6842 42.8503 41.4231 42.8503 41.1012C42.8503 40.7792 42.5892 40.5182 42.2673 40.5182Z" fill="white"/>
</svg>
