<svg width="72" height="72" viewBox="0 0 72 72" fill="none" xmlns="http://www.w3.org/2000/svg">
<circle cx="36" cy="36" r="36" fill="#DD2D1F"/>
<g clip-path="url(#clip0)">
<path d="M53.3997 39H51.5595L50.3998 22.1593C50.378 21.844 50.1159 21.5997 49.7997 21.6001H46.1997C45.8835 21.5997 45.6214 21.844 45.5996 22.1593L44.4399 39H43.2V35.4C43.2 35.0689 42.9313 34.8 42.6001 34.8C42.4635 34.7997 42.3312 34.8463 42.2249 34.9316L37.1999 38.9515V35.4C37.1999 35.0689 36.9314 34.8 36.6001 34.8C36.4636 34.7997 36.3313 34.8463 36.225 34.9316L31.2001 38.9515V35.4C31.2001 35.0689 30.9316 34.8 30.6002 34.8C30.4638 34.7997 30.3313 34.8463 30.2251 34.9316L25.2002 38.9515V35.4C25.2 35.0689 24.9313 34.8002 24.6001 34.8002C24.4909 34.8002 24.3844 34.8298 24.291 34.8859L18.2909 38.4859C18.1105 38.5944 18 38.7893 18 39V53.4C18 53.7314 18.2687 53.9999 18.6001 53.9999H53.3997C53.7311 53.9999 53.9998 53.7314 53.9998 53.4V39.6001C53.9998 39.2685 53.7311 39 53.3997 39ZM46.76 22.8H49.2394L50.3569 39H45.6425L46.76 22.8ZM38.3996 52.7999V45.5999H41.9996V52.7999H38.3996ZM52.7999 52.7999H43.2V44.9999C43.2 44.6687 42.9311 44.4 42.5997 44.4H37.7998C37.4684 44.4 37.1997 44.6687 37.1997 44.9999V52.7999H19.1999V39.3397L23.9999 36.4598V40.1999C23.9999 40.5315 24.2684 40.8 24.5997 40.8005C24.7359 40.8005 24.8684 40.7539 24.975 40.6686L29.9999 36.6487V40.1999C29.9999 40.5315 30.2682 40.8 30.5998 40.8005C30.736 40.8005 30.8683 40.7539 30.9749 40.6688L35.9998 36.6489V40.2002C35.9998 40.5315 36.2681 40.8005 36.5996 40.8005C36.7359 40.8005 36.8681 40.7539 36.9747 40.6688L41.9996 36.6489V39.6001C41.9996 39.9317 42.2684 40.2002 42.5997 40.2002H52.7994V52.7999H52.7999Z" fill="white"/>
<path d="M38.396 19.2003C38.6141 19.3172 38.8112 19.4697 38.9793 19.6514C39.3157 20.0617 39.7947 20.3288 40.3201 20.4003C40.8736 20.3297 41.379 20.0509 41.7338 19.6202C41.8856 19.4609 42.0555 19.3201 42.2403 19.2003C42.3638 19.2058 42.6872 19.5086 42.8612 19.6712C43.1849 20.0718 43.6498 20.3326 44.16 20.4003C44.7493 20.3255 45.2879 20.03 45.6674 19.5734C45.8144 19.4354 46.0369 19.226 46.08 19.2003C46.4021 19.2003 46.476 19.3071 46.6742 19.5928C46.9345 20.0847 47.4434 20.3948 48.0002 20.4003C48.3313 20.4003 48.6001 20.1315 48.6001 19.8004C48.6001 19.4688 48.3313 19.2003 48.0002 19.2003C47.88 19.2003 47.8567 19.192 47.6618 18.9105C47.3432 18.3381 46.7348 17.9881 46.08 18.0002C45.5946 18.0676 45.153 18.3172 44.8454 18.6987C44.6461 18.8866 44.3121 19.2003 44.1853 19.2032C43.9994 19.0907 43.8298 18.9536 43.6799 18.796C43.3191 18.3566 42.8041 18.072 42.2401 18.0002C41.72 18.0712 41.2462 18.3361 40.9134 18.7418C40.745 18.9224 40.5506 19.0768 40.3368 19.2003C40.1368 19.0856 39.9549 18.9424 39.7969 18.7743C39.4462 18.3484 38.947 18.072 38.3999 18.0002C38.0688 17.9991 37.799 18.2667 37.7979 18.5983C37.7968 18.9294 38.0646 19.1992 38.396 19.2003Z" fill="white"/>
<path d="M24.5998 45.6H22.1995C21.8681 45.6 21.5996 45.8687 21.5996 46.1998V49.7998C21.5996 50.1314 21.8681 50.3999 22.1995 50.3999H24.5998C24.9309 50.3999 25.1996 50.1314 25.1996 49.7998V46.1998C25.1996 45.8687 24.9309 45.6 24.5998 45.6ZM23.9995 49.2H22.7995V46.8001H23.9995V49.2Z" fill="white"/>
<path d="M29.4005 45.6H27.0005C26.6689 45.6 26.4004 45.8687 26.4004 46.1998V49.7998C26.4004 50.1314 26.6689 50.3999 27.0005 50.3999H29.4005C29.7317 50.3999 30.0004 50.1314 30.0004 49.7998V46.1998C30.0004 45.8687 29.7317 45.6 29.4005 45.6ZM28.8002 49.2H27.6003V46.8001H28.8002V49.2Z" fill="white"/>
<path d="M34.2003 45.6H31.8003C31.4687 45.6 31.2002 45.8687 31.2002 46.1998V49.7998C31.2002 50.1314 31.4687 50.3999 31.8003 50.3999H34.2003C34.5315 50.3999 34.8002 50.1314 34.8002 49.7998V46.1998C34.8002 45.8687 34.5315 45.6 34.2003 45.6ZM33.6 49.2H32.4001V46.8001H33.6V49.2Z" fill="white"/>
</g>
<defs>
<clipPath id="clip0">
<rect width="36" height="36" fill="white" transform="translate(18 18)"/>
</clipPath>
</defs>
</svg>
