<svg width="72" height="72" viewBox="0 0 72 72" fill="none" xmlns="http://www.w3.org/2000/svg">
<circle cx="36" cy="36" r="36" fill="#DD2D1F"/>
<path d="M47.3996 32.4C47.3996 28.8422 45.7611 25.6604 43.1996 23.5682V18.6C43.1996 18.2688 42.9314 18 42.5996 18H29.3996C29.0678 18 28.7996 18.2688 28.7996 18.6V23.5682C26.238 25.6604 24.5996 28.8422 24.5996 32.4C24.5996 35.9578 26.238 39.1396 28.7996 41.2318V53.4C28.7996 53.6424 28.9454 53.8614 29.1698 53.9544C29.3941 54.0468 29.6522 53.9959 29.8238 53.8242L35.9996 47.6484L42.1754 53.8242C42.29 53.9388 42.4436 54 42.5996 54C42.677 54 42.755 53.985 42.8294 53.9544C43.0538 53.8614 43.1996 53.6425 43.1996 53.4V41.2318C45.7611 39.1396 47.3996 35.9578 47.3996 32.4ZM29.9996 19.2H41.9996V22.7109C41.3369 22.299 40.6294 21.9528 39.8857 21.6824C39.8685 21.6761 39.8512 21.6703 39.8339 21.6641C39.7457 21.6326 39.657 21.602 39.5678 21.5725C39.5259 21.5587 39.484 21.5449 39.4419 21.5316C39.3722 21.5094 39.302 21.4882 39.2317 21.4674C39.1567 21.4451 39.0815 21.4238 39.006 21.4031C38.9436 21.386 38.8811 21.369 38.8182 21.3529C38.7584 21.3377 38.6983 21.3232 38.6382 21.3089C38.5886 21.2971 38.5389 21.2857 38.4891 21.2746C38.428 21.2609 38.3668 21.2472 38.3054 21.2345C38.2355 21.2201 38.1651 21.2069 38.0947 21.1937C38.0134 21.1786 37.9319 21.1644 37.8501 21.1511C37.7916 21.1414 37.7329 21.132 37.6741 21.1234C37.6191 21.1153 37.564 21.1075 37.5088 21.1001C37.4385 21.0908 37.3679 21.0824 37.2971 21.0743C37.2544 21.0695 37.2118 21.064 37.169 21.0596C37.0593 21.0484 36.9491 21.0391 36.8385 21.031C36.7997 21.0282 36.7609 21.026 36.722 21.0236C36.6375 21.0183 36.5527 21.0139 36.4677 21.0105C36.4307 21.009 36.3937 21.0074 36.3566 21.0063C36.238 21.0026 36.1191 21.0002 35.9996 21.0002C35.8801 21.0002 35.7612 21.0026 35.6425 21.0063C35.6055 21.0074 35.5684 21.009 35.5314 21.0105C35.4464 21.0139 35.3617 21.0184 35.2771 21.0236C35.2383 21.026 35.1994 21.0282 35.1607 21.031C35.0501 21.0391 34.9399 21.0485 34.8302 21.0596C34.7874 21.064 34.7448 21.0695 34.7021 21.0743C34.6314 21.0824 34.5608 21.0908 34.4904 21.1001C34.4352 21.1075 34.3801 21.1152 34.3252 21.1234C34.2663 21.1321 34.2077 21.1415 34.1492 21.1511C34.0672 21.1645 33.9855 21.1787 33.904 21.1939C33.8338 21.207 33.7636 21.2202 33.6939 21.2345C33.6324 21.2472 33.5713 21.261 33.51 21.2747C33.4603 21.2858 33.4106 21.2972 33.3611 21.3089C33.301 21.3233 33.2409 21.3377 33.181 21.353C33.1182 21.369 33.0558 21.3861 32.9934 21.4032C32.9179 21.4239 32.8426 21.4452 32.7675 21.4675C32.6972 21.4883 32.6271 21.5096 32.5574 21.5317C32.5154 21.5451 32.4734 21.5588 32.4314 21.5727C32.3423 21.6022 32.2536 21.6327 32.1654 21.6643C32.1481 21.6705 32.1308 21.6763 32.1136 21.6825C31.3699 21.953 30.6624 22.2992 29.9997 22.711V19.2H29.9996ZM41.9996 51.9516L36.4238 46.3758C36.3068 46.2588 36.1531 46.2 35.9996 46.2C35.846 46.2 35.6924 46.2588 35.5754 46.3758L29.9996 51.9516V42.0891C30.6623 42.501 31.3698 42.8471 32.1134 43.1176C32.1308 43.1239 32.1484 43.1298 32.1658 43.1361C32.2538 43.1676 32.3422 43.198 32.4312 43.2274C32.4731 43.2413 32.5152 43.2551 32.5573 43.2685C32.627 43.2906 32.6971 43.3118 32.7674 43.3326C32.8424 43.3549 32.9177 43.3763 32.9932 43.3969C33.0557 43.414 33.118 43.431 33.1809 43.4471C33.2407 43.4625 33.3009 43.4769 33.361 43.4912C33.4105 43.503 33.4601 43.5144 33.5099 43.5255C33.5711 43.5392 33.6323 43.5529 33.6938 43.5656C33.7635 43.58 33.8337 43.5932 33.9039 43.6063C33.9853 43.6215 34.0671 43.6357 34.149 43.6491C34.2076 43.6587 34.2662 43.6681 34.325 43.6768C34.38 43.6849 34.4351 43.6927 34.4903 43.7C34.5606 43.7093 34.6312 43.7177 34.702 43.7258C34.7447 43.7306 34.7873 43.7361 34.8301 43.7405C34.9398 43.7517 35.05 43.761 35.1605 43.7691C35.1993 43.7719 35.2382 43.7741 35.277 43.7765C35.3615 43.7818 35.4463 43.7862 35.5313 43.7896C35.5684 43.7911 35.6053 43.7927 35.6424 43.7939C35.761 43.7975 35.8799 43.8 35.9994 43.8C36.119 43.8 36.2379 43.7975 36.3565 43.7939C36.3935 43.7927 36.4306 43.7911 36.4676 43.7896C36.5526 43.7862 36.6373 43.7818 36.7219 43.7765C36.7607 43.7741 36.7996 43.7719 36.8383 43.7691C36.9489 43.761 37.0591 43.7517 37.1689 43.7405C37.2117 43.7361 37.2542 43.7306 37.2969 43.7258C37.3677 43.7177 37.4383 43.7093 37.5087 43.7C37.5639 43.6927 37.619 43.6849 37.6739 43.6768C37.7328 43.6681 37.7914 43.6586 37.85 43.6491C37.9317 43.6357 38.0133 43.6215 38.0945 43.6064C38.1649 43.5933 38.2353 43.58 38.3053 43.5656C38.3667 43.553 38.4278 43.5392 38.489 43.5255C38.5388 43.5144 38.5885 43.503 38.6381 43.4912C38.6982 43.477 38.7582 43.4625 38.8181 43.4472C38.8809 43.4312 38.9434 43.4141 39.0059 43.397C39.0813 43.3763 39.1565 43.355 39.2316 43.3328C39.3019 43.3119 39.372 43.2907 39.4417 43.2686C39.4839 43.2551 39.5258 43.2415 39.5678 43.2276C39.6568 43.1982 39.7453 43.1677 39.8333 43.1362C39.8507 43.13 39.8683 43.1241 39.8857 43.1177C40.6294 42.8472 41.3369 42.5012 41.9995 42.0893V51.9516H41.9996ZM42.298 40.4179C42.2754 40.431 42.2534 40.4454 42.2324 40.4616C41.3462 41.1477 40.3763 41.6746 39.3503 42.034C39.3283 42.0417 39.3066 42.0497 39.2846 42.0571C39.2593 42.0658 39.2337 42.0739 39.2084 42.0824C39.1556 42.0999 39.1028 42.1173 39.0496 42.1341C39.0321 42.1395 39.0146 42.1449 38.9971 42.1503C38.9333 42.1699 38.8693 42.1891 38.805 42.2075C38.7951 42.2104 38.7852 42.2132 38.7753 42.216C38.3771 42.3288 37.9691 42.4181 37.5529 42.4819C37.5517 42.4821 37.5505 42.4823 37.5493 42.4825C37.3018 42.5204 37.0513 42.5492 36.7983 42.5689C36.7825 42.5701 36.7668 42.5711 36.7509 42.5722C36.6872 42.5769 36.6232 42.581 36.5591 42.5844C36.5359 42.5857 36.5127 42.5869 36.4895 42.588C36.43 42.5908 36.3705 42.593 36.3108 42.5948C36.2879 42.5955 36.2649 42.5964 36.242 42.5969C36.1613 42.5988 36.0805 42.6 35.9995 42.6C35.9184 42.6 35.8377 42.5988 35.757 42.5969C35.734 42.5964 35.7111 42.5955 35.6882 42.5948C35.6285 42.593 35.5689 42.5908 35.5095 42.588C35.4863 42.5869 35.4631 42.5857 35.4399 42.5844C35.3758 42.5809 35.3119 42.5769 35.248 42.5722C35.2323 42.5711 35.2164 42.5701 35.2007 42.5689C34.9476 42.5492 34.6972 42.5204 34.4496 42.4825C34.4484 42.4823 34.4473 42.4821 34.4461 42.4819C34.0299 42.4181 33.6218 42.3288 33.2236 42.216C33.2137 42.2132 33.2039 42.2104 33.194 42.2075C33.1297 42.1891 33.0657 42.1699 33.0019 42.1502C32.9844 42.1448 32.9669 42.1395 32.9494 42.1341C32.8963 42.1174 32.8434 42.1 32.7907 42.0824C32.7653 42.0739 32.7398 42.0658 32.7144 42.0571C32.6924 42.0496 32.6707 42.0416 32.6488 42.034C31.6228 41.6746 30.6528 41.1476 29.7667 40.4616C29.7454 40.4451 29.7231 40.4305 29.7002 40.4172C27.3264 38.548 25.7995 35.649 25.7995 32.4C25.7995 29.1523 27.3253 26.2543 29.6975 24.385C29.7214 24.3712 29.7446 24.3558 29.7667 24.3384C30.6528 23.6523 31.6228 23.1254 32.6488 22.766C32.6707 22.7583 32.6924 22.7503 32.7144 22.7429C32.7398 22.7342 32.7653 22.7261 32.7907 22.7176C32.8435 22.7001 32.8963 22.6827 32.9494 22.6659C32.9669 22.6605 32.9844 22.6551 33.0019 22.6498C33.0657 22.6301 33.1297 22.6109 33.194 22.5925C33.2039 22.5896 33.2137 22.5868 33.2236 22.584C33.6218 22.4712 34.0298 22.382 34.4461 22.3181C34.4473 22.3179 34.4484 22.3177 34.4496 22.3175C34.6972 22.2796 34.9477 22.2508 35.2007 22.2311C35.2164 22.2299 35.2322 22.2289 35.248 22.2277C35.3118 22.2231 35.3758 22.219 35.4399 22.2156C35.4631 22.2143 35.4863 22.2131 35.5095 22.212C35.5689 22.2092 35.6285 22.207 35.6882 22.2052C35.7111 22.2045 35.734 22.2036 35.757 22.2031C35.8377 22.2012 35.9184 22.2 35.9995 22.2C36.0806 22.2 36.1614 22.2012 36.242 22.2031C36.2649 22.2036 36.2879 22.2045 36.3108 22.2052C36.3705 22.207 36.43 22.2092 36.4895 22.212C36.5127 22.2131 36.5359 22.2143 36.5591 22.2156C36.6232 22.2191 36.6871 22.2231 36.7509 22.2277C36.7667 22.2289 36.7825 22.2299 36.7983 22.2311C37.0513 22.2508 37.3018 22.2796 37.5493 22.3175C37.5505 22.3177 37.5517 22.3179 37.5529 22.3181C37.9691 22.3819 38.3771 22.4712 38.7753 22.584C38.7852 22.5868 38.7951 22.5896 38.805 22.5925C38.8693 22.6109 38.9332 22.6301 38.9971 22.6497C39.0146 22.6551 39.0322 22.6604 39.0496 22.6659C39.1028 22.6826 39.1556 22.7 39.2084 22.7176C39.2337 22.7261 39.2593 22.7342 39.2846 22.7429C39.3066 22.7504 39.3283 22.7584 39.3503 22.766C40.3763 23.1254 41.3462 23.6524 42.2324 24.3384C42.2536 24.355 42.2759 24.3695 42.2987 24.3828C44.6726 26.2519 46.1995 29.1509 46.1995 32.3999C46.1996 35.6494 44.6724 38.5487 42.298 40.4179Z" fill="white"/>
<path d="M43.7679 29.8086C43.6964 29.5968 43.5123 29.4414 43.2914 29.4072L38.6978 28.6907L36.5366 24.3335C36.3339 23.925 35.6643 23.925 35.4614 24.3335L33.3002 28.6907L28.7066 29.4072C28.4859 29.4413 28.3016 29.5968 28.2303 29.8086C28.1595 30.021 28.2116 30.255 28.3671 30.4163L31.6227 33.7925L30.6135 38.2679C30.5637 38.4882 30.6424 38.7179 30.8163 38.8619C30.9903 39.0066 31.2303 39.0401 31.4385 38.9501L35.999 36.9653L40.5596 38.9501C40.6364 38.9837 40.7181 38.9999 40.7991 38.9999C40.9365 38.9999 41.0721 38.9525 41.1818 38.8619C41.3559 38.7179 41.4345 38.4881 41.3846 38.2679L40.3754 33.7925L43.631 30.4163C43.7864 30.2549 43.8387 30.0209 43.7679 29.8086ZM39.2871 33.1919C39.1473 33.3378 39.0891 33.5436 39.1341 33.7403L39.9537 37.3775L36.2385 35.7611C36.1617 35.7281 36.0807 35.7113 35.9991 35.7113C35.9175 35.7113 35.8365 35.7281 35.7597 35.7611L32.0445 37.3775L32.8642 33.7403C32.9092 33.5435 32.8509 33.3377 32.7112 33.1919L30.0327 30.4145L33.7924 29.8283C33.9849 29.7983 34.1512 29.6765 34.2369 29.5019L35.999 25.95L37.7612 29.5019C37.847 29.6765 38.0132 29.7984 38.2058 29.8283L41.9654 30.4145L39.2871 33.1919Z" fill="white"/>
</svg>
