<svg width="72" height="72" viewBox="0 0 72 72" fill="none" xmlns="http://www.w3.org/2000/svg">
<circle cx="36" cy="36" r="36" fill="#DD2D1F"/>
<g clip-path="url(#clip0)">
<path d="M53.5966 37.9328L50.1643 36.0246L53.5966 34.117C53.8815 34.0558 54.3404 33.2366 53.5966 32.778L50.2079 30.894L53.5966 29.0103C53.9567 28.8716 54.2598 28.0816 53.5966 27.6713L36.3714 18.0969C36.1412 17.9683 35.8586 17.9683 35.6283 18.0969L18.4031 27.6714C17.7713 28.0202 17.9883 28.8575 18.4031 29.0104L21.7919 30.894L18.4031 32.778C17.7835 33.1286 17.9545 33.9388 18.4031 34.117L21.8354 36.0246L18.4031 37.9328C17.7835 38.2834 17.9545 39.0937 18.4031 39.2719L21.792 41.1554L18.4031 43.0395C17.7835 43.3901 17.9545 44.2003 18.4031 44.3785L35.6283 53.9522C35.7434 54.0165 36.2563 54.0165 36.3714 53.9522L53.5966 44.3785C53.8815 44.3173 54.3404 43.4981 53.5966 43.0395L50.2077 41.1554L53.5966 39.2719C53.8815 39.2107 54.3404 38.3915 53.5966 37.9328ZM35.9999 19.6423L51.6484 28.3408L35.9999 37.0394L20.3514 28.3409L35.9999 19.6423ZM23.3677 31.7699L35.6283 38.5847C35.9811 38.7706 36.2563 38.6491 36.3714 38.5847L48.632 31.7698L51.6491 33.4475L35.9999 42.1453L20.3507 33.4475L23.3677 31.7699ZM51.6491 43.7091L35.9999 52.4068L20.3507 43.7091L23.3679 42.0313L35.6283 48.8456C35.7434 48.9099 36.2563 48.9099 36.3714 48.8456L48.6319 42.0313L51.6491 43.7091ZM35.9999 47.3002L20.3507 38.6024L23.3681 36.9246L23.3547 36.8691L35.6283 43.6906C35.7434 43.7549 36.2563 43.7549 36.3714 43.6906L48.6451 36.869L48.6317 36.9246L51.6491 38.6024L35.9999 47.3002Z" fill="white"/>
</g>
<defs>
<clipPath id="clip0">
<rect width="36" height="36" fill="white" transform="translate(18 18)"/>
</clipPath>
</defs>
</svg>
