<svg width="18" height="18" viewBox="0 0 18 18" fill="none" xmlns="http://www.w3.org/2000/svg">
	<path d="M15.3281 0H2.67188C1.79954 0 1.08984 0.709699 1.08984 1.58203V16.418C1.08984 17.2903 1.79954 18 2.67188 18H15.3281C16.2005 18 16.9102 17.2903 16.9102 16.418V1.58203C16.9102 0.709699 16.2005 0 15.3281 0ZM2.67188 1.05469H15.3281C15.6189 1.05469 15.8555 1.29125 15.8555 1.58203V6.36328H2.14453V1.58203C2.14453 1.29125 2.3811 1.05469 2.67188 1.05469ZM15.3281 16.9453H2.67188C2.3811 16.9453 2.14453 16.7087 2.14453 16.418V7.41797H15.8555V16.418C15.8555 16.7087 15.6189 16.9453 15.3281 16.9453Z" fill="#57ACE6"/>
	<path d="M5.83594 8.47266H3.72656C3.43533 8.47266 3.19922 8.70877 3.19922 9V11.1094C3.19922 11.4006 3.43533 11.6367 3.72656 11.6367H5.83594C6.12717 11.6367 6.36328 11.4006 6.36328 11.1094V9C6.36328 8.70877 6.12717 8.47266 5.83594 8.47266ZM5.30859 10.582H4.25391V9.52734H5.30859V10.582Z" fill="#57ACE6"/>
	<path d="M5.83594 12.6914H3.72656C3.43533 12.6914 3.19922 12.9275 3.19922 13.2188V15.3281C3.19922 15.6194 3.43533 15.8555 3.72656 15.8555H5.83594C6.12717 15.8555 6.36328 15.6194 6.36328 15.3281V13.2188C6.36328 12.9275 6.12717 12.6914 5.83594 12.6914ZM5.30859 14.8008H4.25391V13.7461H5.30859V14.8008Z" fill="#57ACE6"/>
	<path d="M10.0547 12.6914H7.94531C7.65408 12.6914 7.41797 12.9275 7.41797 13.2188V15.3281C7.41797 15.6194 7.65408 15.8555 7.94531 15.8555H10.0547C10.3459 15.8555 10.582 15.6194 10.582 15.3281V13.2188C10.582 12.9275 10.3459 12.6914 10.0547 12.6914ZM9.52734 14.8008H8.47266V13.7461H9.52734V14.8008Z" fill="#57ACE6"/>
	<path d="M10.0547 8.47266H7.94531C7.65408 8.47266 7.41797 8.70877 7.41797 9V11.1094C7.41797 11.4006 7.65408 11.6367 7.94531 11.6367H10.0547C10.3459 11.6367 10.582 11.4006 10.582 11.1094V9C10.582 8.70877 10.3459 8.47266 10.0547 8.47266ZM9.52734 10.582H8.47266V9.52734H9.52734V10.582Z" fill="#57ACE6"/>
	<path d="M14.2734 8.47266H12.1641C11.8728 8.47266 11.6367 8.70877 11.6367 9V15.3281C11.6367 15.6194 11.8728 15.8555 12.1641 15.8555H14.2734C14.5647 15.8555 14.8008 15.6194 14.8008 15.3281V9C14.8008 8.70877 14.5647 8.47266 14.2734 8.47266ZM13.7461 14.8008H12.6914V9.52734H13.7461V14.8008Z" fill="#57ACE6"/>
	<path d="M14.2734 5.30859C14.5647 5.30859 14.8008 5.07248 14.8008 4.78125V2.67188C14.8008 2.38064 14.5647 2.14453 14.2734 2.14453C13.9822 2.14453 13.7461 2.38064 13.7461 2.67188V4.78125C13.7461 5.07248 13.9822 5.30859 14.2734 5.30859Z" fill="#57ACE6"/>
</svg>
