<svg width="17" height="17" viewBox="0 0 17 17" fill="none" xmlns="http://www.w3.org/2000/svg">
	<path d="M14.4766 0H2.52344C1.69957 0 1.0293 0.670272 1.0293 1.49414V15.5059C1.0293 16.3297 1.69957 17 2.52344 17H14.4766C15.3004 17 15.9707 16.3297 15.9707 15.5059V1.49414C15.9707 0.670272 15.3004 0 14.4766 0ZM2.52344 0.996094H14.4766C14.7512 0.996094 14.9746 1.21952 14.9746 1.49414V6.00977H2.02539V1.49414C2.02539 1.21952 2.24881 0.996094 2.52344 0.996094ZM14.4766 16.0039H2.52344C2.24881 16.0039 2.02539 15.7805 2.02539 15.5059V7.00586H14.9746V15.5059C14.9746 15.7805 14.7512 16.0039 14.4766 16.0039Z" fill="white"/>
	<path d="M5.51172 8.00195H3.51953C3.24448 8.00195 3.02148 8.22495 3.02148 8.5V10.4922C3.02148 10.7672 3.24448 10.9902 3.51953 10.9902H5.51172C5.78677 10.9902 6.00977 10.7672 6.00977 10.4922V8.5C6.00977 8.22495 5.78677 8.00195 5.51172 8.00195ZM5.01367 9.99414H4.01758V8.99805H5.01367V9.99414Z" fill="white"/>
	<path d="M5.51172 11.9863H3.51953C3.24448 11.9863 3.02148 12.2093 3.02148 12.4844V14.4766C3.02148 14.7516 3.24448 14.9746 3.51953 14.9746H5.51172C5.78677 14.9746 6.00977 14.7516 6.00977 14.4766V12.4844C6.00977 12.2093 5.78677 11.9863 5.51172 11.9863ZM5.01367 13.9785H4.01758V12.9824H5.01367V13.9785Z" fill="white"/>
	<path d="M9.49609 11.9863H7.50391C7.22885 11.9863 7.00586 12.2093 7.00586 12.4844V14.4766C7.00586 14.7516 7.22885 14.9746 7.50391 14.9746H9.49609C9.77115 14.9746 9.99414 14.7516 9.99414 14.4766V12.4844C9.99414 12.2093 9.77115 11.9863 9.49609 11.9863ZM8.99805 13.9785H8.00195V12.9824H8.99805V13.9785Z" fill="white"/>
	<path d="M9.49609 8.00195H7.50391C7.22885 8.00195 7.00586 8.22495 7.00586 8.5V10.4922C7.00586 10.7672 7.22885 10.9902 7.50391 10.9902H9.49609C9.77115 10.9902 9.99414 10.7672 9.99414 10.4922V8.5C9.99414 8.22495 9.77115 8.00195 9.49609 8.00195ZM8.99805 9.99414H8.00195V8.99805H8.99805V9.99414Z" fill="white"/>
	<path d="M13.4805 8.00195H11.4883C11.2132 8.00195 10.9902 8.22495 10.9902 8.5V14.4766C10.9902 14.7516 11.2132 14.9746 11.4883 14.9746H13.4805C13.7555 14.9746 13.9785 14.7516 13.9785 14.4766V8.5C13.9785 8.22495 13.7555 8.00195 13.4805 8.00195ZM12.9824 13.9785H11.9863V8.99805H12.9824V13.9785Z" fill="white"/>
	<path d="M13.4805 5.01367C13.7555 5.01367 13.9785 4.79068 13.9785 4.51562V2.52344C13.9785 2.24838 13.7555 2.02539 13.4805 2.02539C13.2054 2.02539 12.9824 2.24838 12.9824 2.52344V4.51562C12.9824 4.79068 13.2054 5.01367 13.4805 5.01367Z" fill="white"/>
</svg>
