<svg width="40" height="40" viewBox="0 0 40 40" fill="none" xmlns="http://www.w3.org/2000/svg">
	<path d="M36.4844 5.39062H31.1719V2.8125C31.1719 2.16531 30.6472 1.64062 30 1.64062C29.3528 1.64062 28.8281 2.16531 28.8281 2.8125V5.39062H21.1719V2.8125C21.1719 2.16531 20.6472 1.64062 20 1.64062C19.3528 1.64062 18.8281 2.16531 18.8281 2.8125V5.39062H11.1719V2.8125C11.1719 2.16531 10.6472 1.64062 10 1.64062C9.35281 1.64062 8.82812 2.16531 8.82812 2.8125V5.39062H3.51562C1.57711 5.39062 0 6.96773 0 8.90625V34.8438C0 36.7823 1.57711 38.3594 3.51562 38.3594H36.4844C38.4229 38.3594 40 36.7823 40 34.8438V8.90625C40 6.96773 38.4229 5.39062 36.4844 5.39062ZM3.51562 7.73438H8.82812V10.3125C8.82812 10.9597 9.35281 11.4844 10 11.4844C10.6472 11.4844 11.1719 10.9597 11.1719 10.3125V7.73438H18.8281V10.3125C18.8281 10.9597 19.3528 11.4844 20 11.4844C20.6472 11.4844 21.1719 10.9597 21.1719 10.3125V7.73438H28.8281V10.3125C28.8281 10.9597 29.3528 11.4844 30 11.4844C30.6472 11.4844 31.1719 10.9597 31.1719 10.3125V7.73438H36.4844C37.1305 7.73438 37.6562 8.26008 37.6562 8.90625V14.1406H2.34375V8.90625C2.34375 8.26008 2.86945 7.73438 3.51562 7.73438ZM36.4844 36.0156H3.51562C2.86945 36.0156 2.34375 35.4899 2.34375 34.8438V16.4844H37.6562V34.8438C37.6562 35.4899 37.1305 36.0156 36.4844 36.0156Z" fill="#57ACE6"/>
	<path d="M8.125 19.7656H6.875C6.22781 19.7656 5.70312 20.2903 5.70312 20.9375C5.70312 21.5847 6.22781 22.1094 6.875 22.1094H8.125C8.77219 22.1094 9.29688 21.5847 9.29688 20.9375C9.29688 20.2903 8.77219 19.7656 8.125 19.7656Z" fill="#57ACE6"/>
	<path d="M14.375 19.7656H13.125C12.4778 19.7656 11.9531 20.2903 11.9531 20.9375C11.9531 21.5847 12.4778 22.1094 13.125 22.1094H14.375C15.0222 22.1094 15.5469 21.5847 15.5469 20.9375C15.5469 20.2903 15.0222 19.7656 14.375 19.7656Z" fill="#57ACE6"/>
	<path d="M20.625 19.7656H19.375C18.7278 19.7656 18.2031 20.2903 18.2031 20.9375C18.2031 21.5847 18.7278 22.1094 19.375 22.1094H20.625C21.2722 22.1094 21.7969 21.5847 21.7969 20.9375C21.7969 20.2903 21.2722 19.7656 20.625 19.7656Z" fill="#57ACE6"/>
	<path d="M26.875 19.7656H25.625C24.9778 19.7656 24.4531 20.2903 24.4531 20.9375C24.4531 21.5847 24.9778 22.1094 25.625 22.1094H26.875C27.5222 22.1094 28.0469 21.5847 28.0469 20.9375C28.0469 20.2903 27.5222 19.7656 26.875 19.7656Z" fill="#57ACE6"/>
	<path d="M33.125 19.7656H31.875C31.2278 19.7656 30.7031 20.2903 30.7031 20.9375C30.7031 21.5847 31.2278 22.1094 31.875 22.1094H33.125C33.7722 22.1094 34.2969 21.5847 34.2969 20.9375C34.2969 20.2903 33.7722 19.7656 33.125 19.7656Z" fill="#57ACE6"/>
	<path d="M8.125 24.7656H6.875C6.22781 24.7656 5.70312 25.2903 5.70312 25.9375C5.70312 26.5847 6.22781 27.1094 6.875 27.1094H8.125C8.77219 27.1094 9.29688 26.5847 9.29688 25.9375C9.29688 25.2903 8.77219 24.7656 8.125 24.7656Z" fill="#57ACE6"/>
	<path d="M14.375 24.7656H13.125C12.4778 24.7656 11.9531 25.2903 11.9531 25.9375C11.9531 26.5847 12.4778 27.1094 13.125 27.1094H14.375C15.0222 27.1094 15.5469 26.5847 15.5469 25.9375C15.5469 25.2903 15.0222 24.7656 14.375 24.7656Z" fill="#57ACE6"/>
	<path d="M20.625 24.7656H19.375C18.7278 24.7656 18.2031 25.2903 18.2031 25.9375C18.2031 26.5847 18.7278 27.1094 19.375 27.1094H20.625C21.2722 27.1094 21.7969 26.5847 21.7969 25.9375C21.7969 25.2903 21.2722 24.7656 20.625 24.7656Z" fill="#57ACE6"/>
	<path d="M26.875 24.7656H25.625C24.9778 24.7656 24.4531 25.2903 24.4531 25.9375C24.4531 26.5847 24.9778 27.1094 25.625 27.1094H26.875C27.5222 27.1094 28.0469 26.5847 28.0469 25.9375C28.0469 25.2903 27.5222 24.7656 26.875 24.7656Z" fill="#57ACE6"/>
	<path d="M33.125 24.7656H31.875C31.2278 24.7656 30.7031 25.2903 30.7031 25.9375C30.7031 26.5847 31.2278 27.1094 31.875 27.1094H33.125C33.7722 27.1094 34.2969 26.5847 34.2969 25.9375C34.2969 25.2903 33.7722 24.7656 33.125 24.7656Z" fill="#57ACE6"/>
	<path d="M8.125 29.7656H6.875C6.22781 29.7656 5.70312 30.2903 5.70312 30.9375C5.70312 31.5847 6.22781 32.1094 6.875 32.1094H8.125C8.77219 32.1094 9.29688 31.5847 9.29688 30.9375C9.29688 30.2903 8.77219 29.7656 8.125 29.7656Z" fill="#57ACE6"/>
	<path d="M14.375 29.7656H13.125C12.4778 29.7656 11.9531 30.2903 11.9531 30.9375C11.9531 31.5847 12.4778 32.1094 13.125 32.1094H14.375C15.0222 32.1094 15.5469 31.5847 15.5469 30.9375C15.5469 30.2903 15.0222 29.7656 14.375 29.7656Z" fill="#57ACE6"/>
	<path d="M20.625 29.7656H19.375C18.7278 29.7656 18.2031 30.2903 18.2031 30.9375C18.2031 31.5847 18.7278 32.1094 19.375 32.1094H20.625C21.2722 32.1094 21.7969 31.5847 21.7969 30.9375C21.7969 30.2903 21.2722 29.7656 20.625 29.7656Z" fill="#57ACE6"/>
	<path d="M26.875 29.7656H25.625C24.9778 29.7656 24.4531 30.2903 24.4531 30.9375C24.4531 31.5847 24.9778 32.1094 25.625 32.1094H26.875C27.5222 32.1094 28.0469 31.5847 28.0469 30.9375C28.0469 30.2903 27.5222 29.7656 26.875 29.7656Z" fill="#57ACE6"/>
	<path d="M33.125 29.7656H31.875C31.2278 29.7656 30.7031 30.2903 30.7031 30.9375C30.7031 31.5847 31.2278 32.1094 31.875 32.1094H33.125C33.7722 32.1094 34.2969 31.5847 34.2969 30.9375C34.2969 30.2903 33.7722 29.7656 33.125 29.7656Z" fill="#57ACE6"/>
</svg>
