<svg width="20" height="20" viewBox="0 0 20 20" fill="none" xmlns="http://www.w3.org/2000/svg">
<path d="M3.8026 18.8347C2.89201 18.8347 2.03639 18.4798 1.39287 17.8364C0.0643555 16.5078 0.0643555 14.3458 1.39287 13.0173L11.9276 2.48207C12.7763 1.63247 13.9059 1.16516 15.1069 1.16516C16.308 1.16516 17.4376 1.63247 18.2864 2.48207C19.1359 3.33145 19.6038 4.4604 19.6038 5.66133C19.6038 6.8625 19.1364 7.99141 18.2871 8.84028L9.99397 17.1326C9.74498 17.3814 9.34178 17.3814 9.09291 17.1326C8.84393 16.8836 8.84393 16.4804 9.09291 16.2314L17.3858 7.93911C17.9945 7.33051 18.3293 6.52149 18.3293 5.66133C18.3293 4.80133 17.9938 3.9918 17.3853 3.38313C16.7765 2.77454 15.9675 2.43961 15.1069 2.43961C14.2464 2.43961 13.4373 2.77454 12.8286 3.38313L2.29404 13.9183C1.46268 14.7504 1.46268 16.1034 2.29404 16.9353C3.10049 17.7406 4.50455 17.7406 5.31096 16.9353L12.3848 9.86086C12.5772 9.66852 12.6874 9.40227 12.6874 9.13086C12.6874 8.85567 12.5797 8.59625 12.3843 8.40082C11.9823 7.99883 11.327 7.99762 10.925 8.40082L6.09385 13.2325C5.84502 13.4815 5.44162 13.4815 5.19279 13.2325C4.94381 12.9836 4.94381 12.5803 5.19279 12.3315L10.0238 7.49981C10.9224 6.60121 12.3855 6.60121 13.2854 7.49981C13.7217 7.93598 13.9618 8.51543 13.9618 9.1309C13.9618 9.73821 13.7154 10.3325 13.286 10.7619L6.21217 17.8364C5.56865 18.4798 4.71299 18.8347 3.8026 18.8347Z" fill="#DD2D1F"/>
</svg>
