<svg width="18" height="18" viewBox="0 0 18 18" fill="none" xmlns="http://www.w3.org/2000/svg">
	<g >
		<path d="M9.99418 9.00076L17.7938 1.20108C18.0684 0.926474 18.0684 0.481256 17.7938 0.206686C17.5192 -0.0678837 17.074 -0.0679188 16.7994 0.206686L8.99975 8.00637L1.2001 0.206686C0.925497 -0.0679188 0.480279 -0.0679188 0.20571 0.206686C-0.0688602 0.481291 -0.0688954 0.926509 0.20571 1.20108L8.00535 9.00072L0.20571 16.8004C-0.0688954 17.075 -0.0688954 17.5202 0.20571 17.7948C0.342994 17.9321 0.522959 18.0007 0.702923 18.0007C0.882888 18.0007 1.06282 17.9321 1.20014 17.7948L8.99975 9.99515L16.7994 17.7948C16.9367 17.9321 17.1166 18.0007 17.2966 18.0007C17.4766 18.0007 17.6565 17.9321 17.7938 17.7948C18.0684 17.5202 18.0684 17.075 17.7938 16.8004L9.99418 9.00076Z" fill="#57ACE6"/>
	</g>
	<defs>
		<clipPath >
			<rect width="18" height="18" fill="white"/>
		</clipPath>
	</defs>
</svg>