<svg width="18" height="18" viewBox="0 0 18 18" fill="none" xmlns="http://www.w3.org/2000/svg">
	<g >
	<path d="M16.1981 15.4393C19.3312 11.8256 18.2411 6.20757 13.98 4.016C12.7494 1.63297 10.2621 0 7.4004 0C3.32002 0 0.000428815 3.3198 0.000428815 7.40039C0.000428815 9.19684 0.636335 10.8959 1.80173 12.2401L0.157331 13.8629C-0.17595 14.1919 0.054921 14.7633 0.525241 14.7656L4.49635 14.7845C5.86481 16.7758 8.12546 18 10.5995 18C10.6045 18 17.4706 17.9649 17.4747 17.9648C17.9434 17.9626 18.1769 17.3921 17.8425 17.0621L16.1981 15.4393ZM2.90961 11.8834C1.7137 10.6853 1.05505 9.09316 1.05505 7.40039C1.05505 3.90136 3.90158 1.05469 7.4004 1.05469C10.8992 1.05469 13.7457 3.90136 13.7457 7.40039C13.7457 10.7533 11.0924 13.7731 7.19463 13.7427L1.80665 13.717L2.9068 12.6313C3.11485 12.4259 3.11608 12.0903 2.90961 11.8834ZM10.5995 16.9453C8.74906 16.9453 7.02911 16.1547 5.83352 14.7909C7.84108 14.8041 7.30815 14.8008 7.4004 14.8008C12.1606 14.8008 15.7151 10.3356 14.5965 5.67362C17.5133 8.0563 17.7522 12.4159 15.0903 15.0826C14.8838 15.2895 14.885 15.6252 15.0931 15.8305L16.1932 16.9162C16.189 16.9162 10.6036 16.9453 10.5995 16.9453Z" fill="#57ACE6"/>
	<path d="M4.25485 5.83594H10.5826C10.8739 5.83594 11.1099 5.59983 11.1099 5.30859C11.1099 5.01736 10.8739 4.78125 10.5826 4.78125H4.25485C3.96361 4.78125 3.72754 5.01736 3.72754 5.30859C3.72754 5.59983 3.96365 5.83594 4.25485 5.83594Z" fill="#57ACE6"/>
	<path d="M4.25485 7.94531H10.5826C10.8739 7.94531 11.1099 7.7092 11.1099 7.41797C11.1099 7.12673 10.8739 6.89062 10.5826 6.89062H4.25485C3.96361 6.89062 3.72754 7.12673 3.72754 7.41797C3.72754 7.7092 3.96365 7.94531 4.25485 7.94531Z" fill="#57ACE6"/>
	<path d="M4.25485 10.0547H10.5826C10.8739 10.0547 11.1099 9.81858 11.1099 9.52734C11.1099 9.23611 10.8739 9 10.5826 9H4.25485C3.96361 9 3.72754 9.23611 3.72754 9.52734C3.72754 9.81858 3.96365 10.0547 4.25485 10.0547Z" fill="#57ACE6"/>
	</g>
	<defs>
	<clipPath id="clip0">
	<rect width="18" height="18" fill="white"/>
	</clipPath>
	</defs>
</svg>
