<svg width="44" height="44" viewBox="0 0 44 44" fill="none" xmlns="http://www.w3.org/2000/svg">
	<g clip-path="url(#clip0)">
		<path d="M38.0884 7.73194C34.277 3.92062 29.2073 1.82031 23.8208 1.82031C18.3347 1.82031 13.2016 3.98399 9.37215 7.913C8.95571 8.3385 8.96476 9.02653 9.39026 9.45202C9.81575 9.86846 10.5038 9.8594 10.9293 9.43391C14.3513 5.93039 18.9231 4.00209 23.8208 4.00209C33.752 3.99304 41.8273 12.0683 41.8273 21.9995C41.8273 31.9307 33.752 40.006 23.8208 40.006C13.8896 40.006 5.81431 31.9307 5.81431 21.9995V21.7732L7.60681 23.5657C7.81503 23.7739 8.09567 23.8825 8.37632 23.8825C8.65696 23.8825 8.92855 23.7739 9.14583 23.5657C9.57132 23.1402 9.57132 22.4522 9.14583 22.0267L5.50651 18.3783C5.08101 17.9528 4.39298 17.9528 3.96749 18.3783L0.319119 22.0267C-0.106373 22.4522 -0.106373 23.1402 0.319119 23.5657C0.744612 23.9912 1.43264 23.9912 1.85813 23.5657L3.65064 21.7732V21.9995C3.65064 27.3861 5.75094 32.4558 9.56227 36.2671C13.3736 40.0784 18.4433 42.1787 23.8298 42.1787C29.2164 42.1787 34.2861 40.0784 38.0974 36.2671C41.9087 32.4558 44 27.3861 44 21.9995C44 16.613 41.8997 11.5433 38.0884 7.73194Z" fill="#57ACE6"/>
		<path d="M29.5969 14.6572L16.2527 27.9923C15.8272 28.4178 15.8272 29.1058 16.2527 29.5313C16.4609 29.7395 16.7416 29.8482 17.0222 29.8482C17.3029 29.8482 17.5745 29.7395 17.7917 29.5313L31.1359 16.1871C31.5614 15.7616 31.5614 15.0736 31.1359 14.6481C30.7104 14.2317 30.0224 14.2317 29.5969 14.6572Z" fill="#57ACE6"/>
		<path d="M26.1026 23.6378C24.5908 25.1496 24.5908 27.6211 26.1026 29.1329C26.8359 29.8662 27.8137 30.2736 28.8548 30.2736C29.8959 30.2736 30.8736 29.8662 31.6069 29.1329C33.1188 27.6211 33.1188 25.1496 31.6069 23.6378C30.8736 22.9045 29.8959 22.4971 28.8548 22.4971C27.8137 22.4971 26.845 22.9045 26.1026 23.6378ZM30.0679 27.603C29.742 27.9289 29.3165 28.1009 28.8548 28.1009C28.3931 28.1009 27.9676 27.9198 27.6417 27.603C26.9717 26.9331 26.9717 25.8467 27.6417 25.1768C27.9676 24.8509 28.3931 24.6788 28.8548 24.6788C29.3165 24.6788 29.742 24.8599 30.0679 25.1768C30.7378 25.8467 30.7378 26.9331 30.0679 27.603Z" fill="#57ACE6"/>
		<path d="M18.8244 13.6895C17.7833 13.6895 16.8056 14.0968 16.0723 14.8301C15.339 15.5634 14.9316 16.5412 14.9316 17.5823C14.9316 18.6234 15.339 19.6011 16.0723 20.3344C16.8056 21.0677 17.7833 21.4751 18.8244 21.4751C19.8655 21.4751 20.8433 21.0677 21.5766 20.3344C22.3099 19.6011 22.7172 18.6234 22.7172 17.5823C22.7172 16.5412 22.3099 15.5634 21.5766 14.8301C20.8342 14.0968 19.8655 13.6895 18.8244 13.6895ZM20.0375 18.7954C19.7116 19.1213 19.2861 19.2933 18.8244 19.2933C18.3627 19.2933 17.9372 19.1122 17.6113 18.7954C17.2854 18.4695 17.1134 18.044 17.1134 17.5823C17.1134 17.1206 17.2945 16.6951 17.6113 16.3692C17.9372 16.0432 18.3627 15.8712 18.8244 15.8712C19.2861 15.8712 19.7116 16.0523 20.0375 16.3692C20.3635 16.6951 20.5355 17.1206 20.5355 17.5823C20.5355 18.0349 20.3635 18.4695 20.0375 18.7954Z" fill="#57ACE6"/>
	</g>
	<defs>
		<clipPath >
			<rect width="44" height="44" fill="white"/>
		</clipPath>
	</defs>
</svg>
