<svg width="18" height="18" viewBox="0 0 18 18" fill="none" xmlns="http://www.w3.org/2000/svg">
<g>
<path d="M16.714 11.5715C16.359 11.5715 16.0711 11.8593 16.0711 12.2143V16.0715C16.0711 16.4265 15.7833 16.7144 15.4283 16.7144H2.57119C2.21613 16.7144 1.92832 16.4265 1.92832 16.0715V12.2143C1.92832 11.8593 1.6405 11.5715 1.28545 11.5715C0.930395 11.5715 0.642578 11.8593 0.642578 12.2143V16.0715C0.642578 17.1366 1.50603 18.0001 2.57115 18.0001H15.4283C16.4934 18.0001 17.3569 17.1366 17.3569 16.0715V12.2143C17.3569 11.8593 17.0691 11.5715 16.714 11.5715Z" fill="white"/>
<path d="M12.6539 11.1169C12.4048 10.8763 12.0099 10.8763 11.7608 11.1169L9.64253 13.2338V0.642869C9.64253 0.287816 9.35471 0 8.99966 0C8.64461 0 8.35679 0.287816 8.35679 0.642869V13.2339L6.23984 11.1169C5.98446 10.8703 5.5775 10.8774 5.33086 11.1327C5.09024 11.3818 5.09024 11.7768 5.33086 12.0259L8.54513 15.2402C8.79588 15.4915 9.20291 15.4921 9.45427 15.2414C9.45465 15.241 9.45502 15.2406 9.45544 15.2402L12.6697 12.0259C12.9164 11.7705 12.9093 11.3636 12.6539 11.1169Z" fill="white"/>
</g>
<defs>
<clipPath>
<rect width="18" height="18" fill="white"/>
</clipPath>
</defs>
</svg>
