<svg width="21" height="21" viewBox="0 0 21 21" fill="none" xmlns="http://www.w3.org/2000/svg">
	<path d="M20.5625 4.37504H17.3337L16.821 3.35043C16.597 2.90328 16.1472 2.62503 15.6468 2.62503H13.6334L12.1538 2.13239C11.3943 1.87862 10.6032 1.75 9.80175 1.75H1.3125C0.588861 1.75 0 2.33886 0 3.0625V6.56253C0 7.28617 0.588861 7.87503 1.3125 7.87503H3.42649L2.6565 12.8818L1.05 14.0875C1.04389 14.0919 1.04299 14.0998 1.03774 14.1051C0.9765 14.1549 0.930973 14.2188 0.903861 14.2949C0.898611 14.3089 0.898611 14.322 0.895125 14.3369C0.88725 14.3702 0.874986 14.4017 0.874986 14.4375V17.9375C0.874986 18.6612 1.46385 19.25 2.18749 19.25H9.1875C9.91114 19.25 10.5 18.6612 10.5 17.9375V14.4375C10.5 14.427 10.4948 14.4183 10.4939 14.4078C10.4913 14.3754 10.4843 14.3448 10.4747 14.3142C10.4685 14.2923 10.4642 14.2713 10.4545 14.2512C10.4405 14.2223 10.4212 14.1978 10.4012 14.1724C10.388 14.1558 10.3784 14.1374 10.3635 14.1234C10.3338 14.0945 10.2979 14.0735 10.2603 14.0534C10.2489 14.0473 10.2402 14.0385 10.2288 14.0341L7.48305 12.8573L7.77968 10.927C7.81204 10.9332 7.84354 10.9375 7.87504 10.9375C8.07192 10.9375 8.24955 10.8054 8.29853 10.6059L8.73604 8.85592C8.79465 8.62143 8.65204 8.38428 8.41755 8.32567C8.33442 8.3038 8.25304 8.31603 8.17782 8.34055L8.24951 7.87503H9.80175C10.6024 7.87503 11.3934 7.7464 12.1538 7.49264L13.6334 7H15.6468C16.1473 7 16.597 6.72175 16.821 6.27374L17.3329 5.24999H20.5625C20.804 5.24999 21 5.05397 21 4.81247C21 4.57097 20.804 4.37504 20.5625 4.37504ZM9.62501 17.9375C9.62501 18.179 9.429 18.375 9.1875 18.375H2.18749C1.94599 18.375 1.74997 18.179 1.74997 17.9375V14.875H9.62497V17.9375H9.62501ZM7.93099 14H2.625L3.32501 13.4742C3.41689 13.4059 3.47726 13.3035 3.49478 13.1907L4.31287 7.87503H7.36489L6.56775 13.0576C6.53711 13.2554 6.64388 13.4479 6.82763 13.5267L7.93099 14ZM13.125 6.24753L11.8773 6.66314C11.207 6.88713 10.5088 7 9.80175 7H7.87414H3.93664H1.3125C1.071 7 0.874986 6.80399 0.874986 6.56249V3.06254C0.874986 2.82104 1.071 2.62503 1.3125 2.62503V2.62417H9.80175C10.5087 2.62417 11.207 2.7379 11.8773 2.96103L13.125 3.37754V6.24753ZM16.0379 5.88351C15.9635 6.03228 15.8139 6.12501 15.6468 6.12501H14.0009V3.50001H15.6468C15.8139 3.50001 15.9635 3.59275 16.0379 3.74151L16.5734 4.81251L16.0379 5.88351Z" fill="#DD2D1F"/>
	<path d="M4.81251 3.5H2.18751C1.94601 3.5 1.75 3.69601 1.75 3.93751C1.75 4.17901 1.94601 4.37503 2.18751 4.37503H4.81251C5.05401 4.37503 5.25003 4.17901 5.25003 3.93751C5.25003 3.69601 5.05401 3.5 4.81251 3.5Z" fill="#DD2D1F"/>
	<path d="M4.81251 5.25H2.18751C1.94601 5.25 1.75 5.44601 1.75 5.68751C1.75 5.92901 1.94601 6.12503 2.18751 6.12503H4.81251C5.05401 6.12503 5.25003 5.92901 5.25003 5.68751C5.25003 5.44601 5.05401 5.25 4.81251 5.25Z" fill="#DD2D1F"/>
</svg>
