<svg width="16" height="16" viewBox="0 0 16 16" fill="none" xmlns="http://www.w3.org/2000/svg">
	<g >
		<path d="M8.20279 0.00333482C4.95352 -0.106167 2.28516 2.49519 2.28516 5.71972C2.28516 9.37922 5.79702 12.035 7.76541 15.8544C7.86535 16.0484 8.14451 16.0486 8.24479 15.8547C10.0255 12.418 13.0689 10.1135 13.6329 6.80266C14.2169 3.37656 11.6763 0.120438 8.20279 0.00333482ZM8.00482 8.71572C6.3502 8.71572 5.00882 7.37431 5.00882 5.71972C5.00882 4.06513 6.35023 2.72372 8.00482 2.72372C9.65944 2.72372 11.0008 4.06513 11.0008 5.71972C11.0008 7.37431 9.65944 8.71572 8.00482 8.71572Z" fill="#DD2D1F"/>
	</g>
	<defs>
		<clipPath id="clip0">
			<rect width="16" height="16" fill="white"/>
		</clipPath>
	</defs>
</svg>
