<svg width="16" height="16" viewBox="0 0 16 16" fill="none" xmlns="http://www.w3.org/2000/svg">
	<g clip-path="url(#clip0)">
		<path d="M0.332791 2.97362C2.52873 4.83334 6.38192 8.10516 7.51442 9.12531C7.66645 9.263 7.82951 9.333 7.99879 9.333C8.16773 9.333 8.33051 9.26366 8.4822 9.12663C9.61567 8.10547 13.4689 4.83334 15.6648 2.97362C15.8015 2.85806 15.8224 2.65494 15.7117 2.51366C15.4558 2.18719 15.0743 2 14.6654 2H1.33214C0.923291 2 0.54176 2.18719 0.285916 2.51369C0.175229 2.65494 0.196073 2.85806 0.332791 2.97362Z" fill="#DD2D1F"/>
		<path d="M15.8077 3.98225C15.6895 3.92725 15.5505 3.94644 15.4522 4.03044C14.014 5.2495 12.1192 6.86019 10.6901 8.08934C10.615 8.15381 10.5726 8.24853 10.5743 8.34781C10.5759 8.44678 10.6218 8.54019 10.6993 8.60203C12.0271 9.6655 14.0281 11.1284 15.473 12.1681C15.5307 12.2098 15.599 12.2309 15.6677 12.2309C15.7198 12.2309 15.7718 12.2189 15.8197 12.1942C15.9311 12.1372 16.001 12.0226 16.001 11.8976V4.28465C16.001 4.15478 15.9255 4.03662 15.8077 3.98225Z" fill="#DD2D1F"/>
		<path d="M0.528 12.1669C1.97331 11.1271 3.97463 9.66427 5.30209 8.60077C5.37956 8.53892 5.42547 8.44548 5.42709 8.34655C5.42872 8.24727 5.38641 8.15255 5.31122 8.08808C3.88216 6.85892 1.98697 5.24823 0.548844 4.02917C0.449875 3.94517 0.310562 3.92664 0.193375 3.98098C0.0755313 4.03536 0 4.15352 0 4.28339V11.8964C0 12.0214 0.07 12.136 0.181313 12.1929C0.229156 12.2177 0.28125 12.2297 0.333344 12.2297C0.402031 12.2297 0.470375 12.2085 0.528 12.1669Z" fill="#DD2D1F"/>
		<path d="M15.5915 13.0745C14.196 12.0761 11.6254 10.2148 10.0909 8.96936C9.96586 8.86748 9.78486 8.87073 9.66183 8.97686C9.36073 9.23954 9.10877 9.46092 8.93005 9.6217C8.3812 10.1171 7.61948 10.1171 7.06936 9.62105C6.8913 9.46058 6.63936 9.23854 6.33823 8.97683C6.21617 8.87004 6.03486 8.86679 5.90951 8.96933C4.3802 10.2105 1.80664 12.0741 0.408859 13.0745C0.331047 13.1305 0.280922 13.2167 0.271172 13.3121C0.261734 13.4075 0.293297 13.5022 0.358734 13.5725C0.611047 13.8444 0.966515 14.0003 1.33339 14.0003H14.6667C15.0336 14.0003 15.3887 13.8444 15.6417 13.5726C15.7068 13.5026 15.7387 13.4078 15.7292 13.3125C15.7195 13.2171 15.6693 13.1305 15.5915 13.0745Z" fill="#DD2D1F"/>
	</g>
	<defs>
		<clipPath id="clip0">
			<rect width="16" height="16" fill="white"/>
		</clipPath>
	</defs>
</svg>
