<svg width="42" height="42" viewBox="0 0 42 42" fill="none" xmlns="http://www.w3.org/2000/svg">
	<path d="M38.9368 17.5989H38.2858C37.3092 15.0634 35.6474 12.7591 33.4373 10.8916C33.4373 10.8916 33.4373 10.8916 33.4373 10.8831C33.1118 9.73519 33.3516 8.50166 34.1569 7.21673C34.6023 6.50574 34.6023 5.62342 34.1483 4.92099C33.6943 4.21857 32.8976 3.84166 32.0667 3.94445C28.9743 4.32993 27.1326 5.73478 26.0533 7.03684C25.0339 6.75416 23.9802 6.54857 22.918 6.42008C22.3527 6.35155 21.8387 6.75416 21.7787 7.31953C21.7102 7.88489 22.1128 8.39887 22.6782 8.45883C23.8603 8.59589 25.0253 8.85287 26.1475 9.20409C26.5844 9.34115 27.0555 9.17839 27.3125 8.80148C28.0492 7.71357 29.514 6.33442 32.3323 5.9832C32.358 5.9832 32.3922 5.97464 32.4265 6.02603C32.4608 6.07743 32.4351 6.11169 32.4265 6.12883C31.3129 7.90203 30.9874 9.73519 31.4756 11.4484C31.4756 11.457 31.4756 11.4656 31.4756 11.4741C31.4842 11.7739 31.6213 12.0566 31.8611 12.2451C34.1226 14.0697 35.7587 16.3911 36.5982 18.9438C36.7353 19.3636 37.1293 19.6548 37.5748 19.6548C37.5833 19.6548 37.5833 19.6548 37.5919 19.6548H38.9539C39.4251 19.6548 39.802 20.0317 39.802 20.5029V25.1286C39.802 25.5998 39.4251 25.9767 38.9539 25.9767H37.6519C37.1979 25.9767 36.8038 26.2679 36.6668 26.7048C35.9301 29.1205 34.4652 31.3391 32.4436 33.138C32.4351 33.1466 32.4351 33.1466 32.4265 33.1551L32.4179 33.1637C32.3408 33.2322 32.2637 33.2922 32.1866 33.3607C32.1781 33.3693 32.1695 33.3779 32.1609 33.3779C29.968 35.3652 29.7453 37.7038 29.7281 38.3719C29.7281 38.3805 29.7281 38.3891 29.7281 38.3976V39.9139H23.5519V38.4662C23.5519 38.1749 23.432 37.9008 23.2093 37.7038C22.9866 37.5068 22.7039 37.4125 22.4126 37.4468C21.7273 37.5153 21.042 37.5582 20.3567 37.5582C19.483 37.5582 18.6007 37.4982 17.7441 37.3868C17.4528 37.344 17.153 37.4382 16.9303 37.6353C16.7075 37.8323 16.5791 38.115 16.5791 38.4062V39.9224H10.4028V39.4684C10.4028 39.4513 10.4028 39.4342 10.4028 39.4256C10.3514 38.312 10.0002 35.468 7.78158 33.1894C6.72794 32.1015 5.78566 30.6709 4.98044 28.932C4.97187 28.9149 4.97187 28.9063 4.96331 28.8977C4.4836 27.9726 4.12382 26.9961 3.8754 25.9938C3.8754 25.9852 3.86684 25.9767 3.86684 25.9681C3.86684 25.9595 3.86684 25.9595 3.86684 25.951C3.62698 24.9659 3.50706 23.9551 3.50706 22.9442C3.50706 22.2333 3.56702 21.5223 3.68695 20.8284C3.78117 20.2716 3.40426 19.7405 2.83889 19.6463C2.28209 19.552 1.75099 19.929 1.65676 20.4943C1.5197 21.2995 1.45117 22.1305 1.45117 22.9528C1.45117 24.1092 1.58823 25.2742 1.85378 26.405C1.85378 26.4221 1.86235 26.4478 1.87091 26.4649C1.87091 26.4649 1.87948 26.4821 1.87948 26.5163C2.16217 27.6556 2.58191 28.7778 3.12158 29.8315C4.02103 31.776 5.0918 33.3864 6.3082 34.6371C8.01287 36.3932 8.30412 38.6118 8.34695 39.5112V39.9481C8.34695 39.9738 8.34695 39.9995 8.34695 40.0338C8.34695 40.0766 8.34695 40.1194 8.35552 40.1537C8.45831 41.1902 9.34063 41.9869 10.3857 41.9869H16.5876C17.7184 41.9869 18.6349 41.0703 18.6349 39.9396V39.5541C19.5858 39.6312 20.5366 39.6397 21.4875 39.5969V39.9481C21.4875 41.0789 22.4041 41.9954 23.5348 41.9954H29.7367C30.8674 41.9954 31.784 41.0789 31.784 39.9481V38.4319C31.7926 38.0807 31.9297 36.3846 33.5315 34.9283C33.6086 34.8598 33.6857 34.7913 33.7628 34.7228C33.7714 34.7142 33.7714 34.7142 33.7799 34.7056C33.7971 34.6885 33.8228 34.6714 33.8399 34.6542C35.9215 32.7954 37.4805 30.5168 38.38 28.0411H38.9368C40.5387 28.0411 41.8407 26.7391 41.8407 25.1372V20.5115C41.8407 18.901 40.5387 17.5989 38.9368 17.5989Z" fill="#57ACE6"/>
	<path d="M10.2235 20.1305C15.7744 20.1305 20.2887 15.6162 20.2887 10.0653C20.2887 4.51438 15.7744 0 10.2235 0C4.67258 0 0.158203 4.51438 0.158203 10.0653C0.158203 15.6162 4.67258 20.1305 10.2235 20.1305ZM10.2235 2.05588C14.6436 2.05588 18.2329 5.64512 18.2329 10.0653C18.2329 14.4854 14.6436 18.0746 10.2235 18.0746C5.80332 18.0746 2.21409 14.4854 2.21409 10.0653C2.21409 5.64512 5.80332 2.05588 10.2235 2.05588Z" fill="#57ACE6"/>
</svg>
