<svg width="44" height="44" viewBox="0 0 44 44" fill="none" xmlns="http://www.w3.org/2000/svg">
	<path d="M43.8774 23.3624C43.6497 22.2852 42.4849 21.4181 40.3742 20.7788C38.6051 20.2446 36.3806 19.9293 33.9283 19.8767L33.6919 9.91018C33.3678 8.92929 32.203 8.13232 30.2325 7.53677C28.2619 6.94123 25.6959 6.61719 22.9896 6.61719C20.2922 6.61719 17.7436 6.94123 15.8169 7.53677C14.2317 8.02722 12.3312 8.93805 12.3312 10.5057C12.3312 10.6021 12.34 10.6984 12.3575 10.7947L12.4538 14.7884C11.8057 14.6658 11.1489 14.6044 10.4833 14.6044C4.70302 14.6044 0 19.3075 0 25.0877C0 30.8767 4.68551 35.571 10.4745 35.571C12.883 35.571 15.2213 34.739 17.0868 33.2239C18.7333 33.6092 20.6688 33.8194 22.7182 33.8369C23.1648 36.2629 28.4283 37.3751 33.3328 37.3751C36.0303 37.3751 38.5701 37.0423 40.5143 36.4468C42.117 35.9564 44 35.0368 44 33.4691L43.8774 23.3624ZM16.3073 9.2183C18.0764 8.67531 20.4498 8.36878 22.9721 8.36878C25.4682 8.36878 27.9291 8.67531 29.7158 9.2183C31.625 9.79633 32.0366 10.3919 32.0366 10.5145C32.0366 10.6371 31.625 11.2326 29.7158 11.8107C27.9379 12.3449 25.4769 12.6602 22.9809 12.6602C20.5637 12.6602 18.2691 12.3799 16.5263 11.872C14.6433 11.329 14.1091 10.7247 14.0653 10.532C14.0653 10.5232 14.0565 10.5145 14.0478 10.5057C14.0478 10.3218 14.6346 9.73502 16.3073 9.2183ZM32.1768 12.6777V14.8672C32.0804 15.0161 32.0366 15.1825 32.0366 15.3576C32.0366 15.4715 31.625 16.0758 29.7245 16.6538C27.9467 17.1968 25.4857 17.5033 22.9896 17.5033C20.8264 17.5033 18.707 17.2756 17.0255 16.8465C16.9992 16.8377 16.9729 16.8377 16.9554 16.829C16.1322 16.1721 15.2038 15.6466 14.2229 15.2788L14.1616 12.8091C14.7659 13.1156 15.3965 13.3608 16.0533 13.536C17.9538 14.0877 20.4148 14.3855 22.9984 14.3855C25.7046 14.3855 28.2707 14.0615 30.2325 13.4659C30.8981 13.2908 31.5549 13.0193 32.1768 12.6777ZM16.3511 31.5423C12.7866 34.7916 7.26035 34.5288 4.0199 30.9643C0.779459 27.3998 1.03344 21.8736 4.59793 18.6331C6.20939 17.1705 8.30255 16.356 10.4745 16.356C11.3503 16.356 12.2174 16.4874 13.0581 16.7414C14.1967 17.0917 15.2564 17.6785 16.1584 18.4667C17.6298 19.7191 18.6369 21.4357 19.0311 23.3274C19.1449 23.9054 19.2062 24.5009 19.2062 25.0877C19.215 27.5487 18.1728 29.8959 16.3511 31.5423ZM18.5756 31.735C19.285 30.868 19.8543 29.8959 20.2572 28.8537C21.0103 28.915 21.7986 28.9587 22.6131 28.9675C22.5955 29.0726 22.5955 29.1689 22.6131 29.274L22.6481 32.0941C21.2906 32.0766 19.9331 31.9627 18.5756 31.735ZM20.914 24.0455C21.4307 24.0806 21.965 24.0981 22.5167 24.1068C22.5255 24.1681 22.543 24.2294 22.5605 24.2908L22.5955 27.2072C21.965 27.1984 21.3432 27.1721 20.7564 27.1283C20.8877 26.454 20.9578 25.7621 20.9578 25.079C20.9578 24.7374 20.9403 24.3959 20.914 24.0455ZM23.051 22.364C23.0247 22.364 23.0072 22.364 22.9809 22.364C22.1314 22.364 21.3256 22.329 20.5725 22.2677C20.2484 21.1029 19.7142 19.9994 19.0135 19.0097C20.3272 19.1761 21.6584 19.2637 22.9809 19.2637C25.6871 19.2637 28.2532 18.9396 30.215 18.3441C30.8981 18.1514 31.5462 17.8799 32.168 17.5384V19.8767C29.9785 19.938 27.9204 20.2183 26.2826 20.6825C24.7412 21.1204 23.664 21.6809 23.051 22.364ZM24.2596 23.6689C24.4084 23.3974 25.0653 22.8632 26.7731 22.3903C28.4897 21.9086 30.7229 21.6459 33.0701 21.6459H33.1401C35.6449 21.6459 38.0971 21.9349 39.875 22.4779C41.7142 23.0384 42.1608 23.5989 42.1871 23.7478V23.7565C42.1783 23.8879 41.7492 24.4922 39.8049 25.0702C38.0096 25.6044 35.6361 25.8935 33.1401 25.8935C30.8193 25.8935 28.586 25.6307 26.8694 25.1665C25.2229 24.7199 24.5135 24.2032 24.3033 23.9054C24.3033 23.8266 24.2858 23.7478 24.2596 23.6689ZM42.2484 33.4603C42.2484 33.583 41.8631 34.1873 39.9976 34.7653C38.211 35.317 35.8463 35.6236 33.324 35.6236C30.793 35.6236 28.4371 35.3258 26.6768 34.7915C25.004 34.2748 24.4435 33.6968 24.4435 33.5041C24.4435 33.4954 24.4435 33.4954 24.4435 33.4866L24.4347 32.9524L24.4084 30.9731C25.1091 31.3146 25.836 31.5774 26.5892 31.7613C28.4283 32.243 30.7492 32.5057 33.1401 32.5057C35.8463 32.5057 38.3861 32.1817 40.3479 31.5861C40.9873 31.3935 41.7229 31.1307 42.2484 30.7892V33.4603ZM42.1346 28.6084C42.1346 28.731 41.7317 29.3266 39.8487 29.9046C38.0533 30.4476 35.6712 30.7454 33.1314 30.7454C28.367 30.7454 25.1266 29.6857 24.3734 28.8449L24.3384 26.0774C26.4053 27.1546 29.8822 27.6451 33.1401 27.6451C35.8025 27.6451 38.3336 27.3298 40.2866 26.7517C40.9697 26.5591 41.6266 26.2963 42.2572 25.9548V28.1443C42.2484 28.2756 42.1346 28.4333 42.1346 28.6084Z" fill="#57ACE6"/>
	<path d="M10.4834 19.293C7.28672 19.293 4.70312 21.8853 4.70312 25.0732C4.70312 28.2611 7.29548 30.8535 10.4834 30.8535C13.6713 30.8535 16.2636 28.2611 16.2636 25.0732C16.2549 21.8853 13.6713 19.3017 10.4834 19.293ZM10.4834 29.1106C8.25886 29.1106 6.45472 27.3065 6.45472 25.082C6.45472 22.8575 8.25886 21.0533 10.4834 21.0533C12.7079 21.0533 14.512 22.8575 14.512 25.082C14.512 27.3065 12.7079 29.1106 10.4834 29.1106Z" fill="#57ACE6"/>
</svg>
