<svg width="32" height="32" viewBox="0 0 32 32" fill="none" xmlns="http://www.w3.org/2000/svg">
	<rect width="32" height="32" fill="#232323"/>
	<g clip-path="url(#clip0)">
		<path d="M10.1386 16.3732C9.6132 17.4061 10.2098 17.8998 11.5709 18.7432C12.7281 19.4581 14.3266 19.7195 15.3535 19.8241L14.4929 20.6521C13.2732 21.8135 12.1161 22.9381 11.3069 23.7172C10.1292 24.8461 12.0252 26.6572 13.2021 25.5524L16.3881 22.4795C17.6078 23.6529 18.7769 24.7775 19.5741 25.5567C20.7518 26.6658 22.6469 24.8701 21.4821 23.7215L18.2961 20.6564L17.4235 19.8284C18.4632 19.7238 20.0378 19.447 21.1812 18.7475L21.1803 18.7467C22.5415 17.899 23.1381 17.4061 22.6203 16.3732C22.3075 15.787 21.4641 15.2967 20.3412 16.1444C20.3412 16.1444 18.8249 17.3058 16.3795 17.3058C13.9332 17.3058 12.4178 16.1444 12.4178 16.1444C11.2949 15.2924 10.4481 15.787 10.1386 16.3732Z" fill="white"/>
		<path d="M16.3772 15.7404C19.3584 15.7404 21.7927 13.4107 21.7927 10.5427C21.7927 7.66272 19.3584 5.33301 16.3772 5.33301C13.3952 5.33301 10.9609 7.66272 10.9609 10.5427C10.9609 13.4107 13.3952 15.7404 16.3772 15.7404ZM16.3772 7.97215C17.8421 7.97215 19.0369 9.12158 19.0369 10.5427C19.0369 11.9519 17.8421 13.1013 16.3772 13.1013C14.9124 13.1013 13.7175 11.9519 13.7175 10.5427C13.7167 9.12072 14.9115 7.97215 16.3772 7.97215Z" fill="white"/>
	</g>
	<defs>
		<clipPath id="clip0">
			<rect width="20.5714" height="20.5714" fill="white" transform="translate(6.09375 5.33301)"/>
		</clipPath>
	</defs>
</svg>
