<svg width="18" height="18" viewBox="0 0 18 18" fill="none" xmlns="http://www.w3.org/2000/svg">
	<path d="M8.15268 8.26582C9.1442 8.26582 9.951 7.45915 9.951 6.46764C9.951 5.47598 9.1442 4.66931 8.15268 4.66931C7.16116 4.66931 6.35449 5.47598 6.35449 6.46764C6.35449 7.45915 7.16116 8.26582 8.15268 8.26582ZM8.15268 5.724C8.56274 5.724 8.89632 6.05757 8.89632 6.46764C8.89632 6.87756 8.56274 7.21114 8.15268 7.21114C7.74275 7.21114 7.40918 6.87756 7.40918 6.46764C7.40918 6.05757 7.74275 5.724 8.15268 5.724Z" fill="#57ACE6"/>
	<path d="M17.3427 1.30078H0.657257C0.294846 1.30078 0 1.59563 0 1.95804V16.0812C0 16.4436 0.294846 16.7385 0.657257 16.7385H17.3427C17.7052 16.7385 18 16.4436 18 16.0812V1.95804C18 1.59563 17.7052 1.30078 17.3427 1.30078ZM16.9453 2.35547V10.7018L13.6283 7.3846C13.412 7.16872 13.0603 7.16885 12.8441 7.38501L8.15282 12.0763L5.15616 9.07979C5.05138 8.97487 4.91199 8.91705 4.76367 8.91705C4.61549 8.91705 4.47624 8.97473 4.37146 9.07951L1.05469 12.3963V2.35547H16.9453ZM1.05469 15.6838V13.8878L4.76367 10.1788L7.76019 13.1754C7.86511 13.2803 8.0045 13.3382 8.15282 13.3382C8.30086 13.3382 8.44025 13.2804 8.54489 13.1756L13.2363 8.48419L16.9454 12.1933V15.6838H1.05469Z" fill="#57ACE6"/>
</svg>
