<svg width="23" height="29" viewBox="0 0 23 29" fill="none" xmlns="http://www.w3.org/2000/svg">
	<path d="M11.5007 4.39746C8.01535 4.39746 5.17969 7.23301 5.17969 10.7184C5.17969 14.2037 8.01535 17.0393 11.5007 17.0393C14.9861 17.0393 17.8217 14.2037 17.8217 10.7184C17.8217 7.23301 14.9861 4.39746 11.5007 4.39746ZM11.5007 15.339C8.95283 15.339 6.87986 13.2661 6.87986 10.7183C6.87986 8.17038 8.95283 6.09764 11.5007 6.09764C14.0486 6.09764 16.1216 8.17049 16.1216 10.7184C16.1216 13.2663 14.0487 15.339 11.5007 15.339Z" fill="#57ACE5" fill-opacity="0.9"/>
	<path d="M11.4998 0C5.58957 0 0.78125 4.80832 0.78125 10.7186C0.78125 14.1271 3.63981 19.2053 5.34373 21.9289C6.46482 23.7207 7.66957 25.4261 8.73592 26.7307C10.4475 28.8247 11.0602 28.9999 11.4999 28.9999C11.9463 28.9999 12.5247 28.8245 14.231 26.7295C15.2997 25.417 16.505 23.7127 17.625 21.9302C19.3406 19.2 22.2185 14.1127 22.2185 10.7185C22.2185 4.80832 17.4102 0 11.4998 0ZM16.4463 20.6065C14.2479 24.1749 12.2295 26.5862 11.4897 27.2018C10.7461 26.6051 8.76051 24.2512 6.53136 20.6177C3.95763 16.4222 2.48154 12.8141 2.48154 10.7186C2.48143 5.7458 6.52705 1.70017 11.4998 1.70017C16.4726 1.70017 20.5182 5.7458 20.5182 10.7186C20.5184 12.8021 19.0341 16.406 16.4463 20.6065Z" fill="#57ACE5" fill-opacity="0.9"/>
</svg>
