<svg width="80" height="80" viewBox="0 0 80 80" fill="none" xmlns="http://www.w3.org/2000/svg">
<g filter="url(#filter0_d)">
<path d="M40 13C26.2142 13 15 24.2152 15 38C15 51.7848 26.2142 63 40 63C53.7858 63 65 51.7848 65 38C65 24.2152 53.7858 13 40 13ZM49.9386 38.8759L35.3553 48.2509C35.1844 48.3617 34.987 48.4167 34.7917 48.4167C34.6208 48.4167 34.4479 48.3739 34.2933 48.2896C33.9575 48.1064 33.75 47.7564 33.75 47.375V28.625C33.75 28.2436 33.9575 27.8936 34.2933 27.7104C34.6229 27.5294 35.0358 27.5405 35.3553 27.7491L49.9386 37.1241C50.2356 37.3153 50.4167 37.646 50.4167 38C50.4167 38.354 50.2356 38.6846 49.9386 38.8759Z" fill="white"/>
</g>
<defs>
<filter id="filter0_d" x="0" y="0" width="80" height="80" filterUnits="userSpaceOnUse" color-interpolation-filters="sRGB">
<feFlood flood-opacity="0" result="BackgroundImageFix"/>
<feColorMatrix in="SourceAlpha" type="matrix" values="0 0 0 0 0 0 0 0 0 0 0 0 0 0 0 0 0 0 127 0"/>
<feOffset dy="2"/>
<feGaussianBlur stdDeviation="7.5"/>
<feColorMatrix type="matrix" values="0 0 0 0 1 0 0 0 0 1 0 0 0 0 1 0 0 0 0.3 0"/>
<feBlend mode="normal" in2="BackgroundImageFix" result="effect1_dropShadow"/>
<feBlend mode="normal" in="SourceGraphic" in2="effect1_dropShadow" result="shape"/>
</filter>
</defs>
</svg>
