<svg width="42" height="42" viewBox="0 0 42 42" fill="none" xmlns="http://www.w3.org/2000/svg">
<g>
<path d="M29.1419 36.0762C28.7602 36.0762 28.5059 36.3306 28.5059 36.7123V39.1931C28.5059 39.5748 28.7603 39.8292 29.1419 39.8292C29.5236 39.8292 29.778 39.5747 29.778 39.1931V36.7123C29.778 36.3306 29.46 36.0762 29.1419 36.0762Z" fill="#57ACE6"/>
<path d="M29.1419 29.7783C28.7602 29.7783 28.5059 30.0328 28.5059 30.4144V32.8953C28.5059 33.277 28.7603 33.5314 29.1419 33.5314C29.5236 33.5314 29.778 33.2769 29.778 32.8953V30.4144C29.778 30.0328 29.46 29.7783 29.1419 29.7783Z" fill="#57ACE6"/>
<path d="M21.1275 0.0078125C20.8094 0.0078125 20.4914 0.262279 20.4278 0.580277L16.7383 41.2917C16.7383 41.6098 16.9927 41.9278 17.3107 41.9914C17.6924 41.9914 17.9468 41.737 18.0104 41.419L21.7 0.70751C21.7636 0.325895 21.5092 0.071429 21.1275 0.0078125Z" fill="#57ACE6"/>
<path d="M40.2099 27.4884C41.2277 25.1348 41.991 22.8447 41.991 21.5725C41.991 19.3461 40.9732 17.3741 39.3193 16.0383L37.7927 0.580654C37.729 0.262571 37.4746 -0.0554267 37.093 0.00818985C36.7749 0.0718064 36.4569 0.326272 36.5205 0.707887L37.9836 15.1477C37.0294 14.7024 36.0117 14.448 34.8666 14.448C30.9228 14.448 27.7422 17.6286 27.7422 21.5725C27.7422 25.262 34.0397 36.5212 34.2942 36.9665C34.4214 37.1574 34.6123 37.2846 34.8666 37.2846C35.121 37.2846 35.312 37.1574 35.4391 36.9665C35.5663 36.7121 37.4111 33.4042 39.1286 29.8421L40.2736 41.4193C40.3372 41.7374 40.5917 42.0554 40.9733 41.9918C41.2914 41.9282 41.6094 41.6737 41.5458 41.2921L40.2099 27.4884ZM34.8666 35.3126C32.831 31.5595 29.0143 24.0533 29.0143 21.5089C29.0143 18.2647 31.6224 15.6566 34.8666 15.6566C38.1108 15.6566 40.7189 18.2647 40.7189 21.5089C40.7188 24.0534 36.9021 31.6232 34.8666 35.3126Z" fill="#57ACE6"/>
<path d="M34.8678 17.8828C32.9595 17.8828 31.3691 19.4731 31.3691 21.3815C31.3691 23.2898 32.9594 24.8801 34.8678 24.8801C36.7762 24.8801 38.3665 23.2899 38.3665 21.3815C38.3665 19.4731 36.7761 17.8828 34.8678 17.8828ZM34.8678 23.6079C33.6592 23.6079 32.6414 22.5901 32.6414 21.3815C32.6414 20.1728 33.6592 19.1551 34.8678 19.1551C36.0764 19.1551 37.0942 20.1728 37.0942 21.3815C37.0942 22.5901 36.0764 23.6079 34.8678 23.6079Z" fill="#57ACE6"/>
<path d="M14.7657 20.3644H11.0125V17.6926H13.1117C13.3026 17.6926 13.4298 17.629 13.557 17.5018L16.7376 14.0668C16.9921 13.8123 16.9921 13.4307 16.7376 13.1762L13.557 9.74117C13.4298 9.61394 13.2389 9.55032 13.1117 9.55032H11.0125V8.02378C11.0125 7.64208 10.7581 7.3877 10.3765 7.3877H7.57759C7.19589 7.3877 6.94151 7.64216 6.94151 8.02378V9.55049H2.23422C1.85252 9.55049 1.59814 9.80495 1.59814 10.1866V17.0566C1.59814 17.4383 1.85261 17.6927 2.23422 17.6927H7.00504V20.3645H3.82447C3.63362 20.3645 3.50638 20.4281 3.37915 20.5553L0.198662 23.9903C-0.055804 24.2447 -0.055804 24.6263 0.198662 24.8808L3.37923 28.3158C3.50647 28.4431 3.69732 28.5067 3.82455 28.5067H6.94151V41.3562C6.94151 41.7379 7.19597 41.9923 7.57759 41.9923H10.3765C10.7582 41.9923 11.0125 41.7378 11.0125 41.3562V28.5067H14.7657C15.1474 28.5067 15.4017 28.2522 15.4017 27.8706V21.0005C15.4018 20.6825 15.1474 20.3644 14.7657 20.3644ZM8.21367 8.65986H9.74038V9.5504H8.21367V8.65986ZM2.8703 16.4205V10.8226H12.921L15.5291 13.6215L12.921 16.4204H2.8703V16.4205ZM9.74038 17.6927V20.3645H8.21367V17.6927H9.74038ZM9.74038 40.7201H8.21367V28.5067H9.74038V40.7201ZM14.1932 27.2344H14.1296H4.14255L1.53444 24.4356L4.14255 21.6367C5.16033 21.6367 13.1118 21.6367 14.1932 21.6367V27.2344Z" fill="#57ACE6"/>
<path d="M29.1419 14.6388C29.5236 14.6388 29.778 14.3843 29.778 14.0027V11.5218C29.778 11.1401 29.5236 10.8857 29.1419 10.8857C28.7603 10.8857 28.5059 11.1402 28.5059 11.5218V14.0027C28.5059 14.3844 28.7602 14.6388 29.1419 14.6388Z" fill="#57ACE6"/>
<path d="M29.1419 8.40538C29.5236 8.40538 29.778 8.15091 29.778 7.7693V5.28842C29.778 4.90673 29.5236 4.65234 29.1419 4.65234C28.7603 4.65234 28.5059 4.90681 28.5059 5.28842V7.7693C28.5059 8.0873 28.7602 8.40538 29.1419 8.40538Z" fill="#57ACE6"/>
</g>
<defs>
<clipPath>
<rect width="42" height="42" fill="white"/>
</clipPath>
</defs>
</svg>
