<svg width="21" height="19" viewBox="0 0 21 19" fill="none" xmlns="http://www.w3.org/2000/svg">
<g>
<path d="M1.33333 18.6667H4.66667C4.85075 18.6667 5 18.5174 5 18.3333V12.3333C5 12.1492 4.85075 12 4.66667 12H1.33333C1.14925 12 1 12.1492 1 12.3333V18.3333C1 18.5174 1.14925 18.6667 1.33333 18.6667ZM1.66667 12.6667H4.33333V18H1.66667V12.6667Z" fill="#232323"/>
<path d="M11.3333 18.6667H14.6667C14.8508 18.6667 15 18.5174 15 18.3333V8.33333C15 8.14925 14.8508 8 14.6667 8H11.3333C11.1493 8 11 8.14925 11 8.33333V18.3333C11 18.5174 11.1493 18.6667 11.3333 18.6667ZM11.6667 8.66667H14.3333V18H11.6667V8.66667Z" fill="#232323"/>
<path d="M6.33333 18.6667H9.66667C9.85075 18.6667 10 18.5174 10 18.3333V4.33333C10 4.14925 9.85075 4 9.66667 4H6.33333C6.14925 4 6 4.14925 6 4.33333V18.3333C6 18.5174 6.14925 18.6667 6.33333 18.6667ZM6.66667 4.66667H9.33333V18H6.66667V4.66667Z" fill="#232323"/>
<path d="M16.3333 18.6667H19.6667C19.8508 18.6667 20 18.5174 20 18.3333V0.333333C20 0.14925 19.8508 0 19.6667 0H16.3333C16.1493 0 16 0.14925 16 0.333333V18.3333C16 18.5174 16.1493 18.6667 16.3333 18.6667ZM16.6667 0.666667H19.3333V18H16.6667V0.666667Z" fill="#232323"/>
</g>
</svg>
