<svg width="42" height="42" viewBox="0 0 42 42" fill="none" xmlns="http://www.w3.org/2000/svg">
<path d="M41.3637 16.8H25.3273V0.636329C25.3273 0.254481 25.0727 0 24.691 0H2.60913C2.22728 0 1.9728 0.254565 1.9728 0.636329V18.3909C1.9728 18.7728 2.22736 19.0272 2.60913 19.0272C2.99097 19.0272 3.24546 18.7727 3.24546 18.3909V1.27274H24.0546V36.8455H6.1727V34.3636C8.90903 34.0454 11.0727 31.6909 11.0727 28.8909C11.0727 26.0273 6.55447 19.7272 6.04542 19.0272C5.79086 18.709 5.28181 18.709 5.02724 19.0272C4.5182 19.6637 0 26.0273 0 28.8273C0 31.6909 2.16364 34.0454 4.89996 34.3C4.89996 37.8636 4.89996 38.0546 4.89996 40.6636L0.636329 40.7273C0.254481 40.7273 0 40.9818 0 41.3636C0 41.7453 0.254565 41.9999 0.636329 41.9999C0.636329 41.9999 41.1727 41.9999 41.3636 41.9999C41.7454 41.9999 41.9999 41.7453 41.9999 41.3636V17.4364C42 17.0545 41.7454 16.8 41.3637 16.8ZM5.53638 28.7C5.15453 28.7 4.90005 28.9545 4.90005 29.3363V33.0909C2.86369 32.7727 1.27274 30.9909 1.27274 28.8273C1.27274 26.9818 4.00907 22.6545 5.53638 20.4273C7.06368 22.6545 9.80001 27.0455 9.80001 28.8273C9.80001 30.9909 8.20906 32.709 6.1727 33.0272V29.3363C6.1727 28.9545 5.91822 28.7 5.53638 28.7ZM24.0546 40.7273H6.1727V38.1181H24.0545V40.7273H24.0546ZM35.2545 40.7273H30.8V40.6636V30.9909H35.2545V40.7273ZM40.7273 40.7273H36.5273V30.3546C36.5273 29.9727 36.2727 29.7182 35.8909 29.7182H30.1636C29.7818 29.7182 29.5273 29.9728 29.5273 30.3546V40.7273H25.3273V18.0727H40.7273V40.7273H40.7273Z" fill="#57ACE6"/>
<path d="M6.61875 9.67303H11.5187C11.9006 9.67303 12.155 9.41847 12.155 9.03671V4.00938C12.155 3.62753 11.9005 3.37305 11.5187 3.37305H6.61875C6.2369 3.37305 5.98242 3.62761 5.98242 4.00938V9.03662C5.98234 9.41847 6.30054 9.67303 6.61875 9.67303ZM7.25508 4.64579H10.8824V8.40038H7.25508V4.64579Z" fill="#57ACE6"/>
<path d="M15.7184 9.67303H20.6184C21.0003 9.67303 21.2547 9.41847 21.2547 9.03671V4.00938C21.2547 3.62753 21.0002 3.37305 20.6184 3.37305H15.7184C15.3365 3.37305 15.082 3.62761 15.082 4.00938V9.03662C15.082 9.41847 15.4002 9.67303 15.7184 9.67303ZM16.3548 4.64579H19.9821V8.40038H16.3548V4.64579Z" fill="#57ACE6"/>
<path d="M6.61875 18.0089H11.5187C11.9006 18.0089 12.155 17.7543 12.155 17.3726V12.3453C12.155 11.9635 11.9005 11.709 11.5187 11.709H6.61875C6.2369 11.709 5.98242 11.9635 5.98242 12.3453V17.3726C5.98234 17.7544 6.2369 18.0089 6.61875 18.0089ZM7.25508 13.0453H10.8824V16.7999H7.25508V13.0453Z" fill="#57ACE6"/>
<path d="M15.082 17.3726C15.082 17.7544 15.3366 18.0089 15.7184 18.0089H20.6184C21.0003 18.0089 21.2547 17.7543 21.2547 17.3726V12.3453C21.2547 11.9635 21.0002 11.709 20.6184 11.709H15.7184C15.3365 11.709 15.082 11.9635 15.082 12.3453V17.3726ZM16.3548 13.0453H19.9821V16.7999H16.3548V13.0453Z" fill="#57ACE6"/>
<path d="M15.082 25.5815C15.082 25.9634 15.3366 26.2179 15.7184 26.2179H20.6184C21.0003 26.2179 21.2547 25.9633 21.2547 25.5815V20.5543C21.2547 20.1724 21.0002 19.918 20.6184 19.918H15.7184C15.3365 19.918 15.082 20.1725 15.082 20.5543V25.5815ZM16.3548 21.1906H19.9821V24.9452H16.3548V21.1906Z" fill="#57ACE6"/>
<path d="M15.082 33.7915C15.082 34.1734 15.3366 34.4278 15.7184 34.4278H20.6184C21.0003 34.4278 21.2547 34.1733 21.2547 33.7915V28.7643C21.2547 28.3824 21.0002 28.1279 20.6184 28.1279H15.7184C15.3365 28.1279 15.082 28.3825 15.082 28.7643V33.7915ZM16.3548 29.4006H19.9821V33.1552H16.3548V29.4006Z" fill="#57ACE6"/>
<path d="M27.6813 25.7733H31.8176C32.1995 25.7733 32.4539 25.5187 32.4539 25.1369V21.0006C32.4539 20.6187 32.1994 20.3643 31.8176 20.3643H27.6813C27.2994 20.3643 27.0449 20.6188 27.0449 21.0006V25.1369C27.0449 25.5187 27.3631 25.7733 27.6813 25.7733ZM28.3177 21.6369H31.1813V24.5005H28.3177V21.6369Z" fill="#57ACE6"/>
<path d="M34.3629 25.7733H38.4992C38.8811 25.7733 39.1356 25.5187 39.1356 25.1369V21.0006C39.1356 20.6187 38.881 20.3643 38.4992 20.3643H34.3629C33.981 20.3643 33.7266 20.6188 33.7266 21.0006V25.1369C33.7266 25.5187 33.9811 25.7733 34.3629 25.7733ZM34.9993 21.6369H37.8629V24.5005H34.9993V21.6369Z" fill="#57ACE6"/>
</svg>
