<svg width="20" height="20" viewBox="0 0 20 20" fill="none" xmlns="http://www.w3.org/2000/svg">
	<path d="M19.0725 9.76894L17.3162 7.31008C16.8539 6.66262 16.1028 6.27605 15.307 6.27605H13.7239V2.46875C13.7239 2.14516 13.4616 1.88281 13.138 1.88281H0.585938C0.262344 1.88281 0 2.14516 0 2.46875V15.6484C0 15.972 0.262344 16.2344 0.585938 16.2344H2.58125C2.84504 17.3136 3.81977 18.1172 4.97918 18.1172C6.13859 18.1172 7.11332 17.3136 7.37711 16.2344H12.6229C12.8867 17.3136 13.8614 18.1172 15.0209 18.1172C16.1803 18.1172 17.155 17.3136 17.4188 16.2344H19.4141C19.7377 16.2344 20 15.972 20 15.6484V12.6629C20 11.6194 19.6793 10.6187 19.0725 9.76894ZM4.97918 16.9453C4.26406 16.9453 3.6823 16.3635 3.6823 15.6484C3.6823 14.9334 4.2641 14.3516 4.97918 14.3516C5.69426 14.3516 6.27605 14.9334 6.27605 15.6484C6.27605 16.3635 5.69426 16.9453 4.97918 16.9453ZM12.5521 15.0625H7.3777C7.11395 13.9831 6.13863 13.1797 4.97918 13.1797C3.81973 13.1797 2.84441 13.9831 2.5807 15.0625H1.17188V3.05469H12.5521V15.0625ZM15.0208 16.9453C14.3057 16.9453 13.7239 16.3635 13.7239 15.6484C13.7239 14.9334 14.3057 14.3516 15.0208 14.3516C15.7359 14.3516 16.3177 14.9334 16.3177 15.6484C16.3177 16.3635 15.7359 16.9453 15.0208 16.9453ZM18.8281 15.0625H17.4194C17.1556 13.9831 16.1803 13.1797 15.0209 13.1797C14.5455 13.1797 14.1011 13.3148 13.724 13.5485V7.44793H15.3071C15.7251 7.44793 16.1197 7.65094 16.3626 7.99117L18.1188 10.45C18.5829 11.0998 18.8281 11.865 18.8281 12.6629V15.0625Z" fill="#57ACE6"/>
</svg>