<svg width="32" height="32" viewBox="0 0 32 32" fill="none" xmlns="http://www.w3.org/2000/svg">
	<path d="M32 0H0V32H32V0Z" fill="#232323"/>
	<path d="M26.1209 10.315L26.1146 10.2897C25.6034 8.22326 23.2989 6.00581 21.1826 5.54448L21.1587 5.53957C17.7356 4.88655 14.2648 4.88655 10.8424 5.53957L10.8179 5.54448C8.70223 6.00581 6.39771 8.22326 5.88583 10.2897L5.88021 10.315C5.24826 13.2009 5.24826 16.1276 5.88021 19.0135L5.88583 19.0388C6.37587 21.0171 8.50878 23.1326 10.5461 23.7144V26.0212C10.5461 26.8561 11.5636 27.2661 12.1422 26.6637L14.4793 24.2342C14.9862 24.2626 15.4934 24.2784 16.0006 24.2784C17.7237 24.2784 19.4475 24.1155 21.1587 23.789L21.1826 23.7841C23.2989 23.3228 25.6034 21.1053 26.1146 19.0388L26.1209 19.0136C26.7529 16.1276 26.7529 13.2009 26.1209 10.315ZM24.2714 18.595C23.9302 19.9432 22.1804 21.6192 20.7901 21.9289C18.97 22.275 17.1355 22.4229 15.3028 22.3722C15.2664 22.3712 15.2313 22.3853 15.2059 22.4114C14.9458 22.6784 13.4994 24.1632 13.4994 24.1632L11.6843 26.026C11.5516 26.1644 11.3185 26.0703 11.3185 25.8793V22.0579C11.3185 21.9948 11.2734 21.9412 11.2114 21.929C11.2111 21.929 11.2107 21.9289 11.2104 21.9288C9.82008 21.6192 8.07098 19.9431 7.72902 18.5949C7.16027 15.9864 7.16027 13.342 7.72902 10.7334C8.07098 9.38528 9.82008 7.7092 11.2104 7.39954C14.3891 6.79497 17.612 6.79497 20.7901 7.39954C22.1811 7.7092 23.9302 9.38528 24.2714 10.7334C24.8408 13.3421 24.8408 15.9864 24.2714 18.595Z" fill="white"/>
	<path d="M19.0245 20.3586C18.8108 20.2937 18.6071 20.2501 18.4179 20.1716C16.4577 19.3583 14.6537 18.3091 13.2247 16.7008C12.4121 15.7863 11.7761 14.7537 11.2385 13.661C10.9835 13.1428 10.7686 12.6043 10.5496 12.0693C10.3499 11.5815 10.6441 11.0774 10.9538 10.7099C11.2444 10.3649 11.6184 10.1009 12.0234 9.90629C12.3395 9.75441 12.6514 9.84197 12.8822 10.1099C13.3813 10.6892 13.8398 11.2981 14.211 11.9696C14.4393 12.3826 14.3767 12.8875 13.9629 13.1686C13.8624 13.2369 13.7708 13.3171 13.6771 13.3942C13.5949 13.4619 13.5176 13.5302 13.4613 13.6217C13.3584 13.7893 13.3535 13.9869 13.4197 14.169C13.9299 15.5711 14.7899 16.6614 16.2011 17.2486C16.4269 17.3425 16.6537 17.4519 16.9139 17.4216C17.3496 17.3707 17.4906 16.8928 17.7959 16.6431C18.0944 16.3991 18.4757 16.3959 18.7972 16.5993C19.1187 16.8028 19.4304 17.0212 19.7402 17.242C20.0443 17.4587 20.3471 17.6707 20.6276 17.9177C20.8973 18.1552 20.9902 18.4669 20.8383 18.7892C20.5602 19.3796 20.1557 19.8708 19.572 20.1843C19.4072 20.2727 19.2104 20.3013 19.0245 20.3586C18.8108 20.2936 19.2104 20.3013 19.0245 20.3586Z" fill="white"/>
	<path d="M16.0052 9.23154C18.5692 9.30337 20.6751 11.0049 21.1263 13.5398C21.2032 13.9717 21.2306 14.4133 21.2648 14.8516C21.2792 15.036 21.1748 15.2112 20.9758 15.2136C20.7703 15.2161 20.6778 15.0441 20.6645 14.8598C20.638 14.4949 20.6197 14.1285 20.5694 13.7666C20.304 11.8567 18.781 10.2765 16.8799 9.93743C16.5938 9.88638 16.301 9.87297 16.0113 9.84256C15.8281 9.82332 15.5881 9.81223 15.5475 9.58452C15.5135 9.3936 15.6746 9.24158 15.8564 9.23182C15.9059 9.22908 15.9556 9.23132 16.0052 9.23154C18.5692 9.30337 15.9556 9.23132 16.0052 9.23154Z" fill="white"/>
	<path d="M19.9034 14.2834C19.8992 14.3155 19.8969 14.3907 19.8782 14.4616C19.8102 14.7191 19.4199 14.7513 19.33 14.4915C19.3034 14.4144 19.2994 14.3267 19.2993 14.2437C19.2983 13.7006 19.1803 13.1581 18.9065 12.6856C18.625 12.2 18.1949 11.7918 17.6905 11.5448C17.3854 11.3954 17.0556 11.3026 16.7213 11.2472C16.5751 11.2231 16.4275 11.2084 16.2806 11.188C16.1027 11.1633 16.0077 11.0499 16.0161 10.8745C16.024 10.7102 16.1441 10.5921 16.3231 10.6022C16.9115 10.6356 17.4799 10.7628 18.003 11.0398C19.0668 11.6031 19.6744 12.4923 19.8518 13.6797C19.8598 13.7335 19.8727 13.7868 19.8768 13.8408C19.8868 13.9741 19.8932 14.1076 19.9034 14.2834C19.8992 14.3155 19.8932 14.1076 19.9034 14.2834Z" fill="white"/>
	<path d="M18.3059 14.221C18.0914 14.2249 17.9766 14.1061 17.9544 13.9095C17.9391 13.7723 17.9269 13.6334 17.8942 13.5C17.8297 13.2372 17.6901 12.9937 17.469 12.8327C17.3647 12.7567 17.2464 12.7012 17.1226 12.6655C16.9652 12.6201 16.8018 12.6326 16.6448 12.5941C16.4743 12.5523 16.38 12.4143 16.4069 12.2543C16.4312 12.1088 16.5729 11.9951 16.7319 12.0067C17.726 12.0784 18.4364 12.5923 18.5378 13.7626C18.545 13.8452 18.5534 13.9324 18.5351 14.0114C18.5037 14.1467 18.4036 14.2144 18.3059 14.221C18.0914 14.2249 18.4036 14.2144 18.3059 14.221Z" fill="white"/>
</svg>
