<svg width="32" height="32" viewBox="0 0 32 32" fill="none" xmlns="http://www.w3.org/2000/svg">
	<path d="M32 0H0V32H32V0Z" fill="white"/>
	<path d="M8.29064 9.73838C9.05755 11.6323 10.0295 13.4179 11.3096 15.0209C11.4794 15.2342 11.6934 15.4238 11.9189 15.5782C12.2482 15.8044 12.5589 15.7249 12.6928 15.3482C12.8344 14.9529 12.9644 14.1517 12.9721 13.7366C12.9933 12.6519 12.969 11.941 12.9107 10.8576C12.8729 10.1638 12.6262 9.55448 11.6056 9.37058C11.2904 9.31357 11.2611 9.05412 11.4636 8.7953C11.8852 8.25645 12.4725 8.17058 13.1093 8.13659C14.1415 8.08084 15.1775 8.12634 16.211 8.13659C16.6319 8.14046 17.0554 8.17437 17.4699 8.26474C18.0107 8.38263 18.3003 8.76194 18.3894 9.28983C18.4355 9.56214 18.4592 9.84209 18.4528 10.1176C18.4259 11.3016 18.3689 12.485 18.3554 13.6683C18.3496 14.1328 18.3835 14.6089 18.4829 15.0612C18.6219 15.6916 19.0512 15.8499 19.4901 15.3944C20.0475 14.8159 20.5389 14.1649 21.0002 13.5038C21.8382 12.3012 22.4641 10.9814 23.003 9.62056C23.2817 8.91839 23.495 8.76588 24.2504 8.76398C25.6702 8.76075 27.0899 8.75949 28.5097 8.76398C28.7615 8.76524 29.0248 8.78898 29.2625 8.8646C29.6482 8.98762 29.8014 9.30219 29.711 9.70138C29.5002 10.6368 28.9947 11.4319 28.4533 12.1962C27.5845 13.4225 26.6741 14.6194 25.7849 15.8315C25.6715 15.9859 25.5716 16.1506 25.4786 16.3178C25.1461 16.9188 25.1692 17.2557 25.6541 17.7561C26.4262 18.5525 27.2527 19.2976 28.0004 20.1157C28.5437 20.711 29.0466 21.3567 29.4772 22.0365C30.0218 22.8963 29.6854 23.7061 28.668 23.8503C28.028 23.9406 24.9015 23.851 24.7399 23.8503C23.8994 23.8465 23.1626 23.5549 22.5692 22.9841C21.9093 22.3485 21.3096 21.6514 20.676 20.9883C20.4851 20.7884 20.2813 20.5969 20.0616 20.4296C19.5432 20.0343 19.0345 20.122 18.7923 20.7308C18.5854 21.2536 18.4066 22.6265 18.3983 22.7438C18.3548 23.3569 17.9646 23.7478 17.2777 23.7855C15.2948 23.8932 13.3733 23.6721 11.5832 22.713C10.0661 21.9006 8.85455 20.7519 7.80509 19.4122C6.138 17.2844 4.82122 14.9454 3.61904 12.5377C3.5576 12.4146 2.33997 9.82362 2.30725 9.70123C2.19848 9.29145 2.29995 8.89999 2.64619 8.76524C2.86203 8.68127 6.87661 8.76496 6.94339 8.76854C7.58398 8.80323 8.0208 9.0735 8.29064 9.73838Z" fill="#57ACE5"/>
</svg>
