<svg width="32" height="32" viewBox="0 0 32 32" fill="none" xmlns="http://www.w3.org/2000/svg">
	<path d="M32 0H0V32H32V0Z" fill="#232323"/>
	<path d="M18.4868 20.4844C18.4861 20.365 18.451 20.2407 18.4067 20.1291C18.3477 19.9823 18.2213 19.9093 18.0627 19.8938C17.8766 19.8756 17.7277 19.9507 17.5929 20.0701C17.5388 20.1171 17.5143 20.1873 17.5143 20.1873L17.5171 23.977V24.0703C17.5171 24.0703 17.5494 24.1139 17.5543 24.1195C17.6638 24.2382 17.7916 24.3322 17.9552 24.366C18.2249 24.4214 18.4151 24.3091 18.4678 24.0591C18.4811 23.9966 18.4889 23.932 18.4889 23.8681C18.4903 22.7397 18.4924 21.612 18.4868 20.4844ZM18.4868 20.4844C18.4861 20.365 18.451 20.2407 18.4067 20.1291C18.3477 19.9823 18.2213 19.9093 18.0627 19.8938C17.8766 19.8756 17.7277 19.9507 17.5929 20.0701C17.5388 20.1171 17.5143 20.1873 17.5143 20.1873L17.5171 23.977V24.0703C17.5171 24.0703 17.5494 24.1139 17.5543 24.1195C17.6638 24.2382 17.7916 24.3322 17.9552 24.366C18.2249 24.4214 18.4151 24.3091 18.4678 24.0591C18.4811 23.9966 18.4889 23.932 18.4889 23.8681C18.4903 22.7397 18.4924 21.612 18.4868 20.4844ZM22.73 14.7694C18.2452 14.6732 13.7584 14.6732 9.27291 14.7694C7.7169 14.8024 6.47266 16.0747 6.47266 17.6315V24.6363C6.47266 26.1937 7.7169 27.466 9.27291 27.499C13.7584 27.5952 18.2452 27.5952 22.73 27.499C24.2867 27.466 25.5309 26.1937 25.5309 24.6363V17.6315C25.5309 16.0748 24.2867 14.8024 22.73 14.7694ZM10.5902 25.2746H9.29678V17.9629H7.95774V16.7398H11.932V17.9601H10.5902V25.2746ZM15.2189 22.2398V25.2753H14.0736V24.5815C14.0322 24.6258 14.009 24.6496 13.9873 24.6742C13.7408 24.9523 13.4613 25.184 13.1046 25.3069C12.9305 25.3665 12.7514 25.3869 12.5682 25.3553C12.3182 25.3139 12.1504 25.1699 12.0493 24.9424C11.9552 24.7325 11.9313 24.5078 11.9306 24.2817C11.9278 23.4461 11.9292 19.0239 11.9292 18.981H13.0716C13.0737 19.0196 13.078 22.1941 13.0787 23.7424C13.0787 23.8267 13.0794 23.9131 13.0962 23.9952C13.1383 24.2031 13.2977 24.2922 13.4979 24.2192C13.7282 24.1349 13.9037 23.9762 14.0512 23.786C14.0729 23.7586 14.0729 23.7094 14.0729 23.6701V18.974L15.2189 18.9712C15.2189 18.9713 15.2189 21.1879 15.2189 22.2398ZM19.5758 24.6686C19.4228 25.1292 19.0857 25.3637 18.6012 25.3588C18.2073 25.3553 17.8878 25.1987 17.6245 24.9129C17.595 24.8813 17.5136 24.795 17.5136 24.795V25.2739H16.3662V16.739H17.5136C17.5136 17.6476 17.5136 19.5484 17.5136 19.5484C17.5136 19.5484 17.5782 19.4192 17.6371 19.3525C17.8148 19.1538 18.0311 19 18.2979 18.9326C18.7381 18.8223 19.2458 18.9586 19.4874 19.4732C19.6299 19.7773 19.6699 20.1017 19.6699 20.4317C19.672 21.6247 19.672 22.8177 19.6706 24.0107C19.6699 24.2339 19.6467 24.4545 19.5758 24.6686ZM23.8134 24.4285C23.6147 25.0106 23.2039 25.3336 22.6015 25.4221C22.2279 25.4769 21.8579 25.4691 21.5075 25.3104C21.0279 25.0942 20.7562 24.7031 20.6396 24.2052C20.5855 23.9735 20.5589 23.7306 20.5561 23.4925C20.5469 22.5579 20.5511 21.6227 20.5532 20.6881C20.5539 20.1994 20.6705 19.7486 21.0054 19.3743C21.3874 18.9467 21.8761 18.7873 22.4344 18.8231C22.6022 18.8336 22.7735 18.861 22.9329 18.9137C23.4757 19.092 23.7657 19.4986 23.8794 20.0379C23.923 20.2457 23.9391 20.4613 23.9426 20.674C23.9517 21.1726 23.9391 22.2715 23.9391 22.2715H21.742V23.8464C21.742 24.1294 21.9709 24.3583 22.2539 24.3583C22.5362 24.3583 22.7651 24.1294 22.7651 23.8464V23.0368H23.9454C23.9454 23.0367 23.963 23.9925 23.8134 24.4285ZM22.7651 20.4107C22.7651 20.1284 22.5362 19.8988 22.2539 19.8988C21.9709 19.8988 21.742 20.1284 21.742 20.4107V21.2947H22.7651V20.4107ZM18.4067 20.1291C18.3477 19.9824 18.2213 19.9094 18.0627 19.8939C17.8766 19.8757 17.7277 19.9508 17.5929 20.0702C17.5388 20.1172 17.5143 20.1874 17.5143 20.1874L17.5171 23.977V24.0704C17.5171 24.0704 17.5494 24.1139 17.5543 24.1196C17.6638 24.2382 17.7916 24.3323 17.9552 24.366C18.2249 24.4215 18.4151 24.3091 18.4678 24.0592C18.4811 23.9967 18.4889 23.9321 18.4889 23.8682C18.4903 22.7398 18.4924 21.6121 18.4868 20.4844C18.4861 20.365 18.451 20.2407 18.4067 20.1291Z" fill="white"/>
	<path d="M21.3382 6.66992L21.3379 13.0066H20.1637L20.1651 12.3258C20.0353 12.4537 19.9245 12.5731 19.8027 12.6804C19.5869 12.8706 19.3424 13.0123 19.0564 13.0683C18.6173 13.1542 18.2433 13.0153 18.1033 12.5606C18.0567 12.4092 18.0285 12.2459 18.0273 12.0878V6.66992H19.1927V11.5023C19.1927 11.5664 19.1978 11.6311 19.209 11.6939C19.2444 11.893 19.3916 11.9867 19.5833 11.9202C19.8171 11.8394 19.9955 11.6775 20.1468 11.4868C20.1683 11.4596 20.1644 11.4087 20.1644 11.3688V6.66992H21.3382Z" fill="white"/>
	<path d="M11.6289 7.77117C11.3741 6.69679 10.8401 4.42871 10.8401 4.42871H9.50391C9.50391 4.42871 10.5305 7.83332 10.9896 9.35169C11.0061 9.4066 11.0136 9.46621 11.0136 9.52372L11.0131 13.0054H12.2452L12.2448 9.52372C12.2448 9.46621 12.2523 9.4066 12.2688 9.35169C12.7279 7.83332 13.7545 4.42871 13.7545 4.42871H12.4183C12.4183 4.42871 11.8843 6.69679 11.6294 7.77117H11.6289Z" fill="white"/>
	<path d="M15.361 6.51172C14.4324 6.51172 13.6797 7.26444 13.6797 8.19299V11.4833C13.6797 12.4118 14.4324 13.1646 15.361 13.1646C16.2895 13.1646 17.0422 12.4118 17.0422 11.4833V8.19299C17.0423 7.26444 16.2895 6.51172 15.361 6.51172ZM15.8462 11.5497C15.8462 11.8172 15.6285 12.0348 15.361 12.0348C15.0936 12.0348 14.8759 11.8172 14.8759 11.5497V8.1265C14.8759 7.85897 15.0936 7.64137 15.361 7.64137C15.6285 7.64137 15.8462 7.85904 15.8462 8.1265V11.5497Z" fill="white"/>
</svg>
