<svg width="55" height="55" viewBox="0 0 55 55" fill="none" xmlns="http://www.w3.org/2000/svg">
<path d="M47.2656 1.71875C45.8203 1.72044 44.4239 2.24246 43.3319 3.1893C42.2398 4.13613 41.5252 5.44449 41.3188 6.875H33.5156C33.2877 6.875 33.0691 6.96554 32.908 7.12671C32.7468 7.28787 32.6562 7.50645 32.6562 7.73438C32.6562 7.9623 32.7468 8.18088 32.908 8.34204C33.0691 8.50321 33.2877 8.59375 33.5156 8.59375H41.25V42.1094C41.25 42.3373 41.3405 42.5559 41.5017 42.717C41.6629 42.8782 41.8815 42.9688 42.1094 42.9688C42.3373 42.9688 42.5559 42.8782 42.717 42.717C42.8782 42.5559 42.9688 42.3373 42.9688 42.1094C42.9688 40.9698 43.4215 39.8768 44.2273 39.071C45.0331 38.2652 46.126 37.8125 47.2656 37.8125C48.4052 37.8125 49.4982 38.2652 50.304 39.071C51.1098 39.8768 51.5625 40.9698 51.5625 42.1094V42.2898C51.5602 43.3809 51.1258 44.4266 50.3543 45.1981C49.5828 45.9696 48.5371 46.404 47.4461 46.4062H13.75V8.59375H21.4844C21.7123 8.59375 21.9309 8.50321 22.092 8.34204C22.2532 8.18088 22.3438 7.9623 22.3438 7.73438C22.3438 7.50645 22.2532 7.28787 22.092 7.12671C21.9309 6.96554 21.7123 6.875 21.4844 6.875H13.75V2.57812C13.75 2.3502 13.6595 2.13162 13.4983 1.97046C13.3371 1.80929 13.1185 1.71875 12.8906 1.71875H2.57812C2.3502 1.71875 2.13162 1.80929 1.97046 1.97046C1.80929 2.13162 1.71875 2.3502 1.71875 2.57812V52.4219C1.71875 52.6498 1.80929 52.8684 1.97046 53.0295C2.13162 53.1907 2.3502 53.2812 2.57812 53.2812H12.8906C13.1185 53.2812 13.3371 53.1907 13.4983 53.0295C13.6595 52.8684 13.75 52.6498 13.75 52.4219V48.125H47.4461C48.9936 48.1227 50.477 47.5067 51.5709 46.4122C52.6648 45.3176 53.2799 43.8339 53.2812 42.2864V7.73438C53.2794 6.13949 52.6451 4.61045 51.5173 3.4827C50.3896 2.35494 48.8605 1.72057 47.2656 1.71875ZM12.0312 51.5625H3.4375V48.9844H6.875V47.2656H3.4375V45.5469H5.15625V43.8281H3.4375V42.1094H6.875V40.3906H3.4375V38.6719H5.15625V36.9531H3.4375V35.2344H6.875V33.5156H3.4375V31.7969H5.15625V30.0781H3.4375V28.3594H6.875V26.6406H3.4375V24.9219H5.15625V23.2031H3.4375V21.4844H6.875V19.7656H3.4375V18.0469H5.15625V16.3281H3.4375V14.6094H6.875V12.8906H3.4375V11.1719H5.15625V9.45312H3.4375V7.73438H6.875V6.01562H3.4375V3.4375H12.0312V51.5625ZM51.5625 37.8984C51.0029 37.3258 50.3346 36.8708 49.5967 36.5602C48.8588 36.2496 48.0662 36.0895 47.2656 36.0895C46.465 36.0895 45.6725 36.2496 44.9346 36.5602C44.1967 36.8708 43.5283 37.3258 42.9688 37.8984V7.73438C42.9688 6.59477 43.4215 5.50185 44.2273 4.69603C45.0331 3.89021 46.126 3.4375 47.2656 3.4375C48.4052 3.4375 49.4982 3.89021 50.304 4.69603C51.1098 5.50185 51.5625 6.59477 51.5625 7.73438V37.8984Z" fill="#57ACE6"/>
<path d="M26.7309 39.056C26.8021 39.199 26.9119 39.3193 27.0477 39.4034C27.1836 39.4875 27.3402 39.5321 27.5 39.5321C27.6598 39.5321 27.8164 39.4875 27.9523 39.4034C28.0881 39.3193 28.1979 39.199 28.2691 39.056L30.8473 33.8998C30.9067 33.7805 30.9376 33.6489 30.9375 33.5156V5.15625C30.9375 4.24457 30.5753 3.37023 29.9307 2.72557C29.286 2.08091 28.4117 1.71875 27.5 1.71875C26.5883 1.71875 25.714 2.08091 25.0693 2.72557C24.4247 3.37023 24.0625 4.24457 24.0625 5.15625V33.5156C24.0624 33.6489 24.0933 33.7805 24.1527 33.8998L26.7309 39.056ZM28.3594 31.3371V12.0313H29.2188V31.9103L28.3594 31.3371ZM26.6406 31.3371L25.7813 31.9103V12.0313H26.6406V31.3371ZM29.2188 10.3125H25.7813V8.59375H29.2188V10.3125ZM27.5 36.7503L26.0296 33.8095L27.5 32.8281L28.9704 33.8078L27.5 36.7503ZM25.7813 5.15625C25.7813 4.70041 25.9623 4.26324 26.2847 3.94091C26.607 3.61858 27.0442 3.4375 27.5 3.4375C27.9558 3.4375 28.393 3.61858 28.7153 3.94091C29.0377 4.26324 29.2188 4.70041 29.2188 5.15625V6.875H25.7813V5.15625Z" fill="#57ACE6"/>
<path d="M17.1875 42.1094C17.1875 42.3373 17.278 42.5559 17.4392 42.717C17.6004 42.8782 17.819 42.9688 18.0469 42.9688H36.9531C37.181 42.9688 37.3996 42.8782 37.5608 42.717C37.722 42.5559 37.8125 42.3373 37.8125 42.1094C37.8125 41.8815 37.722 41.6629 37.5608 41.5017C37.3996 41.3405 37.181 41.25 36.9531 41.25H18.0469C17.819 41.25 17.6004 41.3405 17.4392 41.5017C17.278 41.6629 17.1875 41.8815 17.1875 42.1094Z" fill="#57ACE6"/>
</svg>
