<svg width="55" height="55" viewBox="0 0 55 55" fill="none" xmlns="http://www.w3.org/2000/svg">
<path d="M21.1328 14.2705H33.8673C34.3125 14.2705 34.673 13.9096 34.673 13.4648C34.673 13.0201 34.3125 12.6592 33.8673 12.6592H21.1328C20.688 12.6592 20.3271 13.0201 20.3271 13.4648C20.3271 13.9096 20.688 14.2705 21.1328 14.2705Z" fill="#57ACE6"/>
<path d="M10.7832 20.864H44.2174C44.6626 20.864 45.0231 20.5031 45.0231 20.0583C45.0231 19.6131 44.6626 19.2527 44.2174 19.2527H10.7832C10.338 19.2527 9.97754 19.6131 9.97754 20.0583C9.97754 20.5031 10.338 20.864 10.7832 20.864Z" fill="#57ACE6"/>
<path d="M10.7832 26.5051H44.2174C44.6626 26.5051 45.0231 26.1443 45.0231 25.6995C45.0231 25.2547 44.6626 24.8938 44.2174 24.8938H10.7832C10.338 24.8938 9.97754 25.2547 9.97754 25.6995C9.97754 26.1443 10.338 26.5051 10.7832 26.5051Z" fill="#57ACE6"/>
<path d="M31.0478 30.5349H10.7832C10.338 30.5349 9.97754 30.8958 9.97754 31.3406C9.97754 31.7854 10.338 32.1462 10.7832 32.1462H31.0478C31.493 32.1462 31.8534 31.7854 31.8534 31.3406C31.8534 30.8958 31.493 30.5349 31.0478 30.5349Z" fill="#57ACE6"/>
<path d="M52.7122 3.75977H2.28775C1.02638 3.75977 0 4.78615 0 6.04752V43.5105C0 44.7718 1.02638 45.7982 2.28775 45.7982H35.2826C35.7278 45.7982 36.0883 45.4374 36.0883 44.9926C36.0883 44.5473 35.7278 44.1869 35.2826 44.1869H2.28775C1.91471 44.1869 1.61133 43.8835 1.61133 43.5105V6.04752C1.61133 5.67448 1.91471 5.37109 2.28775 5.37109H52.7122C53.0853 5.37109 53.3887 5.67448 53.3887 6.04752V43.5105C53.3887 43.8835 53.0853 44.1869 52.7122 44.1869H49.485C49.0398 44.1869 48.6793 44.5473 48.6793 44.9926C48.6793 45.4374 49.0398 45.7982 49.485 45.7982H52.7122C53.9736 45.7982 55 44.7718 55 43.5105V6.04752C55 4.78615 53.9736 3.75977 52.7122 3.75977Z" fill="#57ACE6"/>
<path d="M50.3297 41.4032C50.6897 40.7796 50.7233 40.018 50.4203 39.3651C50.2973 39.1011 50.3813 38.7885 50.6196 38.6211C51.2083 38.2078 51.5604 37.5313 51.5604 36.8113C51.5604 36.6015 51.5302 36.395 51.4731 36.1978C51.531 35.9977 51.56 35.7912 51.56 35.5801V13.9774C51.56 12.9389 50.8441 12.0367 49.8186 11.7837C48.4124 11.4371 47.3231 10.3477 46.9765 8.94118C46.7235 7.91606 45.8213 7.2002 44.7823 7.2002H10.2181C9.17953 7.2002 8.27735 7.91606 8.02432 8.9416C7.6773 10.3477 6.58839 11.4371 5.18184 11.7837C4.15672 12.0367 3.44043 12.9389 3.44043 13.9774V35.5801C3.44043 36.6191 4.15672 37.5213 5.18184 37.7743C6.58839 38.1209 7.6773 39.2102 8.02432 40.6164C8.27735 41.6419 9.17953 42.3578 10.2181 42.3578H35.5377C35.7299 42.4329 35.9339 42.4811 36.1441 42.5C36.4336 42.5256 36.6627 42.7547 36.6883 43.0443C36.7492 43.7291 37.126 44.3459 37.7025 44.7135V49.7649C37.7025 50.2701 37.961 50.727 38.3941 50.9876C38.6215 51.1244 38.875 51.1936 39.1288 51.1936C39.3575 51.1936 39.587 51.1374 39.7981 51.0254L42.3771 49.657L44.956 51.0254C45.4021 51.262 45.9275 51.2482 46.3605 50.9876C46.7935 50.727 47.052 50.2701 47.052 49.7649V44.7135C47.6282 44.3459 48.005 43.7291 48.0658 43.0443C48.0914 42.7547 48.3205 42.5252 48.6105 42.4996C49.3272 42.4362 49.97 42.0263 50.3297 41.4032ZM9.58907 40.2307C9.09812 38.2413 7.55729 36.7005 5.56789 36.2096C5.26408 36.1349 5.05176 35.876 5.05176 35.5801V13.9774C5.05176 13.682 5.26408 13.4231 5.56789 13.3484C7.55729 12.8575 9.09812 11.3166 9.58865 9.32723C9.66376 9.02343 9.92267 8.81152 10.2181 8.81152H44.7827C45.0782 8.81152 45.3371 9.02385 45.4117 9.32723C45.9027 11.3166 47.4435 12.8575 49.4329 13.3484C49.7367 13.4231 49.9491 13.682 49.9491 13.9774V31.7331C49.5895 31.3873 49.1186 31.1679 48.6105 31.123C48.3205 31.0969 48.0914 30.8678 48.0658 30.5783C48.002 29.8612 47.5921 29.2183 46.9689 28.8587C46.3454 28.4987 45.5834 28.4651 44.9313 28.7685C44.6669 28.891 44.3543 28.8071 44.1869 28.5692C43.7731 27.98 43.0967 27.6284 42.3771 27.6284C41.657 27.6284 40.9806 27.98 40.5673 28.5692C40.3998 28.8071 40.0868 28.891 39.8233 28.7685C39.1704 28.4651 38.4088 28.4991 37.7852 28.8587C37.1621 29.2183 36.7521 29.8612 36.6883 30.5783C36.6627 30.8678 36.4336 31.0969 36.1437 31.123C35.427 31.1863 34.7841 31.5967 34.4241 32.2198C34.0641 32.843 34.0305 33.605 34.3339 34.2575C34.4564 34.5214 34.3725 34.8345 34.1346 35.0015C33.5454 35.4152 33.1938 36.0916 33.1938 36.8113C33.1938 37.5313 33.5454 38.2078 34.1346 38.6211C34.3729 38.7885 34.4564 39.1011 34.3339 39.3651C34.1312 39.8015 34.0792 40.2866 34.1744 40.7465H10.2181C9.92267 40.7465 9.66376 40.5345 9.58907 40.2307ZM43.0459 48.1879C42.6272 47.966 42.127 47.966 41.7082 48.1879L39.3139 49.4585V45.0194C39.488 44.9858 39.6592 44.9309 39.8233 44.8545C40.0877 44.7316 40.4003 44.8159 40.5673 45.0538C40.981 45.6425 41.6574 45.9942 42.3771 45.9942C43.0971 45.9942 43.7736 45.6425 44.1873 45.0538C44.3543 44.8155 44.6673 44.7316 44.9313 44.8545C45.0954 44.9309 45.2666 44.9858 45.4407 45.0194V49.4585L43.0459 48.1879ZM49.6935 37.3027C48.8161 37.9187 48.5068 39.0718 48.9588 40.0444C49.0423 40.224 49.0335 40.4254 48.9344 40.5971C48.8354 40.7687 48.6655 40.8774 48.4678 40.895C47.3995 40.9898 46.5556 41.8337 46.4608 42.902C46.4432 43.0997 46.3345 43.2696 46.1629 43.3686C45.9912 43.4677 45.7898 43.4765 45.6102 43.3934C44.6367 42.941 43.484 43.2503 42.868 44.1277C42.7543 44.2901 42.5751 44.3833 42.3771 44.3833C42.179 44.3833 41.9998 44.2901 41.8861 44.1277C41.4602 43.5214 40.7783 43.1865 40.0763 43.1865C39.7624 43.1865 39.4448 43.2537 39.1444 43.393C38.9643 43.4769 38.7629 43.4677 38.5913 43.3686C38.4197 43.2696 38.311 43.0997 38.2934 42.902C38.1985 41.8341 37.3547 40.9898 36.2863 40.895C36.0887 40.8774 35.9188 40.7687 35.8197 40.5971C35.7203 40.4254 35.7115 40.224 35.795 40.0444C36.2469 39.0718 35.9381 37.9187 35.0602 37.3027C34.8983 37.1885 34.8051 37.0093 34.8051 36.8113C34.8051 36.6132 34.8983 36.4341 35.0602 36.3203C35.9381 35.7039 36.2469 34.5508 35.795 33.5786C35.7115 33.3985 35.7203 33.1971 35.8197 33.0255C35.9188 32.8539 36.0887 32.7452 36.2863 32.7276C37.3543 32.6327 38.1985 31.7889 38.2934 30.7206C38.311 30.5229 38.4197 30.353 38.5913 30.2539C38.7629 30.1549 38.9648 30.1461 39.1439 30.2296C40.117 30.6815 41.2697 30.3723 41.8857 29.4949C41.9998 29.3325 42.179 29.2397 42.3771 29.2397C42.5751 29.2397 42.7543 29.3325 42.868 29.4949C43.484 30.3723 44.6376 30.6815 45.6098 30.2296C45.7898 30.1461 45.9912 30.1549 46.1629 30.2539C46.3345 30.353 46.4427 30.5229 46.4604 30.7206C46.5552 31.7889 47.3995 32.6327 48.4678 32.7276C48.665 32.7452 48.8354 32.8539 48.9344 33.0255C49.0335 33.1971 49.0423 33.3985 48.9588 33.5786C48.5068 34.5508 48.8161 35.7039 49.6935 36.3203C49.8559 36.4345 49.9491 36.6132 49.9491 36.8113C49.9491 37.0098 49.8559 37.1885 49.6935 37.3027Z" fill="#57ACE6"/>
<path d="M42.3768 31.1794C39.2716 31.1794 36.7451 33.706 36.7451 36.8111C36.7451 39.9163 39.2716 42.4428 42.3768 42.4428C45.482 42.4428 48.0085 39.9163 48.0085 36.8111C48.0085 33.706 45.482 31.1794 42.3768 31.1794ZM42.3768 40.8315C40.16 40.8315 38.3564 39.028 38.3564 36.8111C38.3564 34.5947 40.16 32.7912 42.3768 32.7912C44.5936 32.7912 46.3971 34.5947 46.3971 36.8111C46.3971 39.028 44.5936 40.8315 42.3768 40.8315Z" fill="#57ACE6"/>
</svg>
