<svg width="22" height="22" viewBox="0 0 22 22" fill="none" xmlns="http://www.w3.org/2000/svg">
<path d="M20.6508 14.6704C20.1652 14.6704 19.7742 15.0614 19.7742 15.547V19.7751H2.22578V15.547C2.22578 15.0614 1.83477 14.6704 1.34922 14.6704C0.863672 14.6704 0.472656 15.0614 0.472656 15.547V20.6517C0.472656 21.1372 0.863672 21.5282 1.34922 21.5282H20.6508C21.1363 21.5282 21.5273 21.1372 21.5273 20.6517V15.547C21.5273 15.0614 21.1363 14.6704 20.6508 14.6704Z" fill="#57ACE6"/>
<path d="M10.3554 15.7097C10.8495 16.2082 11.4554 15.9332 11.6402 15.7097L16.6804 10.2871C17.0113 9.93042 16.9898 9.37612 16.6331 9.04527C16.2765 8.71441 15.7222 8.73589 15.3956 9.09253L11.8765 12.8781V1.48276C11.8765 0.997217 11.4855 0.606201 10.9999 0.606201C10.5144 0.606201 10.1234 0.997217 10.1234 1.48276V12.8824L6.60423 9.09683C6.27337 8.74019 5.71908 8.723 5.36244 9.04956C5.00579 9.38042 4.98861 9.93472 5.31517 10.2914L10.3554 15.7097Z" fill="#57ACE6"/>
</svg>
