<svg width="237" height="237" viewBox="0 0 237 237" fill="none" xmlns="http://www.w3.org/2000/svg">
<g opacity="0.1" clip-path="url(#clip0)">
<path d="M157.717 168.947C151.9 168.947 146.622 165.985 143.599 161.022C142.464 159.159 140.033 158.568 138.17 159.703C136.308 160.838 135.717 163.268 136.852 165.131C138.955 168.583 141.801 171.369 145.114 173.364L141.02 191.942L131.15 180.577C132.942 178.517 132.51 176.111 130.966 174.769C129.321 173.338 126.826 173.511 125.394 175.157L118.449 183.144L100.954 163.706C102.443 160.847 103.345 157.709 103.603 154.438C137.461 164.405 171.331 138.851 171.331 103.749V71.0999C171.331 68.9185 169.563 67.1499 167.381 67.1499C165.2 67.1499 163.431 68.9185 163.431 71.0999V103.749C163.431 128.524 143.275 148.68 118.5 148.68C93.7247 148.68 73.5689 128.524 73.5689 103.749V70.2269C83.1985 69.6803 91.3893 63.6344 94.3083 52.6771C110.755 63.2097 129.191 70.0339 148.538 72.7421C150.706 73.0442 152.696 71.5319 152.997 69.3777C153.299 67.2175 151.794 65.2208 149.633 64.9181C129.933 62.1605 110.708 54.7874 93.6259 42.6945C91.0145 40.8449 87.378 42.7266 87.3938 45.9438C87.3943 46.0421 87.3573 55.8386 79.9264 60.309C75.2274 63.1362 70.4745 62.2232 69.6569 62.2143C67.638 62.1951 65.9271 63.7099 65.697 65.7081C65.6536 66.0903 65.6689 64.7892 65.6689 97.3159C63.0303 95.9473 61.2251 93.2238 61.2251 90.0894V41.9687C61.2251 36.7957 65.4334 32.5874 70.6064 32.5874C72.2214 32.5874 73.674 31.6039 74.2739 30.1044C79.6696 16.6156 92.5427 7.89998 107.071 7.89998H140.945C160.423 7.89998 176.269 23.7459 176.269 43.2233V90.0894C176.269 92.2708 178.037 94.0394 180.219 94.0394C182.4 94.0394 184.169 92.2708 184.169 90.0894V43.2233C184.169 19.39 164.779 0 140.945 0H107.071C90.1253 0 75.018 9.69229 67.9238 24.8953C59.6644 26.1884 53.3252 33.3522 53.3252 41.9687V90.0894C53.3252 97.6463 58.6122 103.997 65.7089 105.702C66.446 125.876 78.5464 143.199 95.7876 151.443V152.484C95.7876 156.885 94.0713 161.02 90.9553 164.128C85.4287 169.638 78.4644 168.947 79.282 168.947C56.7493 168.947 38.5127 187.181 38.5127 209.716V233.05C38.5127 235.231 40.2813 237 42.4627 237C44.6441 237 46.4127 235.231 46.4127 233.05V209.716C46.4127 191.549 61.1141 176.847 79.283 176.847C81.0116 176.847 82.7373 176.663 84.4437 176.299L89.9554 201.312C90.6531 204.479 94.6712 205.497 96.7953 203.052L104.577 194.091L99.7687 232.56C99.4981 234.724 101.034 236.698 103.198 236.969C105.367 237.239 107.337 235.701 107.608 233.539L113.165 189.082C113.416 189.361 115.612 191.823 115.894 192.071C117.524 193.502 120.007 193.357 121.457 191.722C122.238 190.828 120.218 193.15 123.826 189.001L129.393 233.539C129.663 235.7 131.633 237.239 133.803 236.968C135.967 236.698 137.503 234.724 137.232 232.559L132.424 194.091L140.206 203.051C142.333 205.501 146.349 204.473 147.046 201.311L152.557 176.297C154.231 176.653 155.956 176.846 157.718 176.846C175.885 176.847 190.587 191.547 190.587 209.716V233.05C190.587 235.231 192.356 237 194.537 237C196.719 237 198.487 235.231 198.487 233.05V209.716C198.487 187.183 180.253 168.946 157.717 168.947ZM95.9801 191.942L91.8855 173.358C93.3914 172.449 94.804 171.366 96.106 170.128L105.683 180.769L95.9801 191.942Z" fill="#57ACE6"/>
</g>
<defs>
<clipPath id="clip0">
<rect width="237" height="237" fill="white"/>
</clipPath>
</defs>
</svg>
