<svg width="55" height="55" viewBox="0 0 55 55" fill="none" xmlns="http://www.w3.org/2000/svg">
<path d="M46.3253 6.37525H42.6601V2.71045C42.6601 2.61169 42.6407 2.51388 42.603 2.42262C42.5652 2.33137 42.5098 2.24845 42.44 2.17861C42.3701 2.10878 42.2872 2.05339 42.1959 2.01562C42.1047 1.97785 42.0069 1.95844 41.9081 1.9585H17.5943C17.5456 1.95853 17.4971 1.96343 17.4495 1.97311H17.4452C17.3805 1.98693 17.318 2.00917 17.2591 2.03928C17.2462 2.04572 17.2342 2.0526 17.2213 2.0599C17.1622 2.09243 17.1077 2.13275 17.0593 2.17979L8.14371 11.0979C8.09674 11.1458 8.05655 11.1999 8.02426 11.2587C8.01652 11.272 8.00922 11.2849 8.00234 11.2986C7.9729 11.3568 7.95095 11.4184 7.93703 11.4821V11.492C7.92795 11.5375 7.92321 11.5839 7.92285 11.6303V47.8736C7.92285 48.073 8.00208 48.2643 8.14309 48.4053C8.28411 48.5463 8.47537 48.6256 8.6748 48.6256H12.3405V52.2904C12.3404 52.3891 12.3598 52.4869 12.3976 52.5782C12.4354 52.6695 12.4907 52.7524 12.5606 52.8222C12.6304 52.892 12.7133 52.9474 12.8046 52.9852C12.8959 53.023 12.9937 53.0424 13.0924 53.0423H46.3262C46.4249 53.0424 46.5227 53.023 46.614 52.9852C46.7052 52.9474 46.7882 52.892 46.858 52.8222C46.9278 52.7524 46.9832 52.6695 47.021 52.5782C47.0588 52.4869 47.0782 52.3891 47.0781 52.2904V7.12721C47.0782 7.02837 47.0587 6.93049 47.0209 6.83918C46.9831 6.74787 46.9276 6.66491 46.8577 6.59507C46.7878 6.52522 46.7048 6.46985 46.6134 6.43213C46.522 6.39441 46.4241 6.37508 46.3253 6.37525ZM16.8436 4.52545V10.8784H10.4894L16.8436 4.52545ZM9.4259 12.3823H17.5943C17.693 12.3823 17.7908 12.3629 17.8821 12.3252C17.9733 12.2874 18.0563 12.232 18.1261 12.1622C18.1959 12.0923 18.2513 12.0094 18.2891 11.9182C18.3269 11.8269 18.3463 11.7291 18.3462 11.6303V10.4646H35.0666C35.2661 10.4646 35.4573 10.3854 35.5983 10.2443C35.7394 10.1033 35.8186 9.91207 35.8186 9.71264C35.8186 9.51321 35.7394 9.32194 35.5983 9.18092C35.4573 9.03991 35.2661 8.96068 35.0666 8.96068H18.3475V3.4624H41.1562V47.1217H9.4259V12.3823ZM45.5734 51.5384H13.8435V48.6256H41.9081C42.0069 48.6256 42.1047 48.6062 42.1959 48.5684C42.2872 48.5307 42.3701 48.4753 42.44 48.4054C42.5098 48.3356 42.5652 48.2527 42.603 48.1614C42.6407 48.0702 42.6601 47.9724 42.6601 47.8736V7.87916H45.5734V51.5384Z" fill="#57ACE6"/>
<path d="M15.5156 20.8503H35.0664C35.2658 20.8503 35.4571 20.7711 35.5981 20.6301C35.7391 20.4891 35.8184 20.2978 35.8184 20.0984C35.8184 19.899 35.7391 19.7077 35.5981 19.5667C35.4571 19.4257 35.2658 19.3464 35.0664 19.3464H15.5156C15.3162 19.3464 15.1249 19.4257 14.9839 19.5667C14.8429 19.7077 14.7637 19.899 14.7637 20.0984C14.7637 20.2978 14.8429 20.4891 14.9839 20.6301C15.1249 20.7711 15.3162 20.8503 15.5156 20.8503Z" fill="#57ACE6"/>
<path d="M15.5156 26.0437H35.0664C35.2658 26.0437 35.4571 25.9645 35.5981 25.8235C35.7391 25.6824 35.8184 25.4912 35.8184 25.2917C35.8184 25.0923 35.7391 24.9011 35.5981 24.76C35.4571 24.619 35.2658 24.5398 35.0664 24.5398H15.5156C15.3162 24.5398 15.1249 24.619 14.9839 24.76C14.8429 24.9011 14.7637 25.0923 14.7637 25.2917C14.7637 25.4912 14.8429 25.6824 14.9839 25.8235C15.1249 25.9645 15.3162 26.0437 15.5156 26.0437Z" fill="#57ACE6"/>
<path d="M15.5156 31.2385H35.0664C35.2658 31.2385 35.4571 31.1593 35.5981 31.0183C35.7391 30.8773 35.8184 30.686 35.8184 30.4866C35.8184 30.2871 35.7391 30.0959 35.5981 29.9549C35.4571 29.8138 35.2658 29.7346 35.0664 29.7346H15.5156C15.3162 29.7346 15.1249 29.8138 14.9839 29.9549C14.8429 30.0959 14.7637 30.2871 14.7637 30.4866C14.7637 30.686 14.8429 30.8773 14.9839 31.0183C15.1249 31.1593 15.3162 31.2385 15.5156 31.2385Z" fill="#57ACE6"/>
<path d="M15.5156 36.4302H35.0664C35.2658 36.4302 35.4571 36.351 35.5981 36.2099C35.7391 36.0689 35.8184 35.8777 35.8184 35.6782C35.8184 35.4788 35.7391 35.2875 35.5981 35.1465C35.4571 35.0055 35.2658 34.9263 35.0664 34.9263H15.5156C15.3162 34.9263 15.1249 35.0055 14.9839 35.1465C14.8429 35.2875 14.7637 35.4788 14.7637 35.6782C14.7637 35.8777 14.8429 36.0689 14.9839 36.2099C15.1249 36.351 15.3162 36.4302 15.5156 36.4302Z" fill="#57ACE6"/>
<path d="M15.5156 41.6228H35.0664C35.2658 41.6228 35.4571 41.5436 35.5981 41.4026C35.7391 41.2615 35.8184 41.0703 35.8184 40.8708C35.8184 40.6714 35.7391 40.4802 35.5981 40.3391C35.4571 40.1981 35.2658 40.1189 35.0664 40.1189H15.5156C15.3162 40.1189 15.1249 40.1981 14.9839 40.3391C14.8429 40.4802 14.7637 40.6714 14.7637 40.8708C14.7637 41.0703 14.8429 41.2615 14.9839 41.4026C15.1249 41.5436 15.3162 41.6228 15.5156 41.6228Z" fill="#57ACE6"/>
<path d="M15.5156 15.657H35.0664C35.2658 15.657 35.4571 15.5778 35.5981 15.4367C35.7391 15.2957 35.8184 15.1045 35.8184 14.905C35.8184 14.7056 35.7391 14.5143 35.5981 14.3733C35.4571 14.2323 35.2658 14.1531 35.0664 14.1531H15.5156C15.3162 14.1531 15.1249 14.2323 14.9839 14.3733C14.8429 14.5143 14.7637 14.7056 14.7637 14.905C14.7637 15.1045 14.8429 15.2957 14.9839 15.4367C15.1249 15.5778 15.3162 15.657 15.5156 15.657Z" fill="#57ACE6"/>
</svg>
