<svg width="56" height="56" viewBox="0 0 56 56" fill="none" xmlns="http://www.w3.org/2000/svg">
<g clip-path="url(#clip0)">
<path d="M25.0945 16.0038L24.5527 9.50228C24.5173 9.07714 24.1619 8.75011 23.7353 8.75011H22.9151V7.92969C22.9151 6.57267 21.8111 5.46875 20.4541 5.46875C19.0971 5.46875 17.9932 6.57267 17.9932 7.92969V8.75011H17.173C16.7516 8.75011 16.3987 9.06937 16.3567 9.48872L15.7004 16.0512C15.6773 16.2819 15.7529 16.5115 15.9084 16.6833C16.0639 16.8551 16.2849 16.9531 16.5166 16.9531H24.282C24.2828 16.9531 24.2835 16.9531 24.2842 16.9531C24.7373 16.9531 25.1045 16.5858 25.1045 16.1328C25.1045 16.089 25.101 16.0458 25.0945 16.0038ZM19.6338 7.92969C19.6338 7.47731 20.0018 7.10938 20.4541 7.10938C20.9065 7.10938 21.2744 7.47731 21.2744 7.92969V8.75011H19.6338V7.92969ZM17.423 15.3126L17.9153 10.3907H22.9805L23.3905 15.3126H17.423Z" fill="#57ACE6"/>
<path d="M46.8621 7.30078C46.8602 7.28077 46.8567 7.2613 46.8533 7.24183C46.8521 7.23494 46.8514 7.22794 46.8501 7.22116C46.8455 7.19797 46.8395 7.17522 46.8328 7.15269C46.832 7.14974 46.8314 7.14656 46.8305 7.14361C46.8235 7.12064 46.8152 7.09822 46.8064 7.07613C46.8054 7.0735 46.8045 7.07088 46.8035 7.06825C46.7948 7.04714 46.7848 7.02658 46.7743 7.00645C46.7725 7.00295 46.771 6.99923 46.7692 6.99573C46.7591 6.97703 46.748 6.95888 46.7365 6.94105C46.7334 6.93634 46.7309 6.93142 46.7277 6.92672C46.7162 6.90966 46.7038 6.89336 46.6911 6.87717C46.6873 6.87225 46.6839 6.867 46.6799 6.86219C46.6629 6.84152 46.6449 6.8215 46.6259 6.80258L40.0641 0.240406C40.0451 0.221484 40.0252 0.203438 40.0044 0.186375C39.9991 0.182 39.9933 0.178281 39.9879 0.174016C39.9723 0.161766 39.9565 0.149625 39.94 0.138578C39.9349 0.135078 39.9294 0.132234 39.9242 0.128953C39.9068 0.117906 39.8893 0.106969 39.8711 0.0972344C39.8671 0.0950469 39.8629 0.0934063 39.8589 0.0913281C39.8391 0.0811563 39.8191 0.0713125 39.7985 0.0627813C39.7955 0.0615781 39.7925 0.0607031 39.7895 0.0596094C39.7678 0.0508594 39.7457 0.0426563 39.723 0.0357656C39.7197 0.0347813 39.7164 0.034125 39.7131 0.03325C39.6908 0.0267969 39.6683 0.0207813 39.6454 0.0161875C39.6385 0.0147656 39.6314 0.0142188 39.6245 0.0130156C39.6051 0.009625 39.5856 0.00623438 39.5657 0.00426563C39.5386 0.00142188 39.5113 0 39.4838 0H9.9541C9.50107 0 9.13379 0.367281 9.13379 0.820313V50.4191C9.13379 50.8722 9.50107 51.2395 9.9541 51.2395H28.5477C29.0008 51.2395 29.3681 50.8722 29.3681 50.4191C29.3681 49.9661 29.0008 49.5988 28.5477 49.5988H10.7744V1.64063H38.6635V7.38259C38.6635 7.83563 39.0308 8.20291 39.4838 8.20291H45.2256V49.5988H40.579C40.126 49.5988 39.7587 49.9661 39.7587 50.4191C39.7587 50.8722 40.126 51.2395 40.579 51.2395H46.0459C46.4989 51.2395 46.8662 50.8722 46.8662 50.4191V7.38259C46.8662 7.35514 46.8649 7.3278 46.8621 7.30078ZM40.3041 6.56228V2.80077L44.0655 6.56228H40.3041Z" fill="#57ACE6"/>
<path d="M39.4841 23.3506H16.5166C16.0636 23.3506 15.6963 23.7179 15.6963 24.1709C15.6963 24.6239 16.0636 24.9912 16.5166 24.9912H39.4841C39.9371 24.9912 40.3044 24.6239 40.3044 24.1709C40.3044 23.7179 39.9371 23.3506 39.4841 23.3506Z" fill="#57ACE6"/>
<path d="M39.4841 27.7271H16.5166C16.0636 27.7271 15.6963 28.0943 15.6963 28.5474C15.6963 29.0004 16.0636 29.3677 16.5166 29.3677H39.4841C39.9371 29.3677 40.3044 29.0004 40.3044 28.5474C40.3044 28.0943 39.9371 27.7271 39.4841 27.7271Z" fill="#57ACE6"/>
<path d="M39.4841 32.1018H16.5166C16.0636 32.1018 15.6963 32.4691 15.6963 32.9221C15.6963 33.3752 16.0636 33.7424 16.5166 33.7424H39.4841C39.9371 33.7424 40.3044 33.3752 40.3044 32.9221C40.3044 32.4691 39.9371 32.1018 39.4841 32.1018Z" fill="#57ACE6"/>
<path d="M26.3597 36.4768H16.5166C16.0636 36.4768 15.6963 36.8441 15.6963 37.2971C15.6963 37.7502 16.0636 38.1174 16.5166 38.1174H26.3597C26.8127 38.1174 27.18 37.7502 27.18 37.2971C27.18 36.8441 26.8127 36.4768 26.3597 36.4768Z" fill="#57ACE6"/>
<path d="M40.3057 44.4067C40.3057 41.2404 37.7298 38.6646 34.5635 38.6646C31.3972 38.6646 28.8213 41.2404 28.8213 44.4067C28.8213 46.2314 29.6779 47.8589 31.009 48.9115V55.18C31.009 55.1887 31.01 55.1971 31.0103 55.2059C31.0109 55.2226 31.0113 55.2392 31.0128 55.256C31.0139 55.2677 31.0158 55.2792 31.0173 55.2908C31.0194 55.3057 31.0214 55.3207 31.0242 55.3356C31.0266 55.3481 31.0298 55.3603 31.0327 55.3726C31.036 55.3862 31.0392 55.3999 31.0432 55.4134C31.0471 55.4263 31.0516 55.4387 31.056 55.4514C31.0604 55.4639 31.0647 55.4765 31.0697 55.4888C31.0751 55.502 31.0811 55.5145 31.0871 55.5273C31.0925 55.5387 31.0976 55.5502 31.1035 55.5615C31.1106 55.5749 31.1184 55.5877 31.1261 55.6007C31.1322 55.6108 31.138 55.621 31.1444 55.6308C31.1535 55.6446 31.1634 55.6577 31.1733 55.6709C31.1786 55.678 31.1832 55.6855 31.1888 55.6925C31.1899 55.6939 31.1912 55.695 31.1923 55.6964C31.2107 55.7192 31.2302 55.7409 31.2508 55.7615C31.2566 55.7673 31.263 55.7723 31.269 55.7779C31.284 55.792 31.2993 55.8058 31.3154 55.8188C31.325 55.8266 31.3349 55.8336 31.3449 55.8409C31.3584 55.8508 31.3718 55.8604 31.3857 55.8693C31.3962 55.8761 31.4068 55.8825 31.4176 55.8887C31.4322 55.8972 31.4471 55.9051 31.4622 55.9128C31.4724 55.9179 31.4827 55.923 31.4933 55.9278C31.5101 55.9353 31.5272 55.942 31.5445 55.9484C31.5539 55.9519 31.5632 55.9556 31.5727 55.9587C31.5921 55.9652 31.612 55.9704 31.632 55.9753C31.64 55.9773 31.6479 55.9797 31.6559 55.9815C31.6779 55.9863 31.7005 55.9897 31.7232 55.9926C31.7296 55.9934 31.7358 55.9948 31.7422 55.9955C31.7689 55.9983 31.7962 55.9997 31.8237 55.9999C31.8258 55.9999 31.8279 56.0003 31.83 56.0003C31.8309 56.0003 31.8316 56 31.8325 56C31.8725 55.9999 31.9116 55.996 31.95 55.9904C31.9583 55.9892 31.9664 55.9881 31.9747 55.9866C32.0137 55.9797 32.0517 55.9701 32.0885 55.9578C32.0953 55.9555 32.1019 55.9529 32.1086 55.9505C32.1478 55.9363 32.1861 55.9199 32.2224 55.9001C32.2237 55.8994 32.2249 55.8984 32.2262 55.8978C32.2645 55.8767 32.3005 55.8522 32.3346 55.8254C32.337 55.8235 32.3397 55.8223 32.3421 55.8205L34.5639 54.043L36.7857 55.8205C36.788 55.8223 36.7905 55.8234 36.7928 55.8253C36.8271 55.8522 36.8633 55.8767 36.9016 55.8979C36.9028 55.8985 36.9039 55.8994 36.9051 55.9001C36.9414 55.92 36.9798 55.9364 37.0192 55.9506C37.0258 55.953 37.0323 55.9556 37.039 55.9578C37.0758 55.9701 37.1139 55.9797 37.1529 55.9867C37.1611 55.9881 37.1692 55.9892 37.1775 55.9904C37.216 55.9961 37.2551 55.9999 37.2951 56C37.296 56 37.2968 56.0003 37.2976 56.0003C37.2996 56.0003 37.3018 55.9999 37.3038 55.9999C37.3313 55.9997 37.3586 55.9983 37.3855 55.9955C37.3917 55.9948 37.3978 55.9934 37.4039 55.9926C37.4268 55.9897 37.4496 55.9862 37.4717 55.9813C37.4795 55.9796 37.4873 55.9773 37.4951 55.9753C37.5153 55.9704 37.5353 55.965 37.5549 55.9586C37.5642 55.9555 37.5733 55.9518 37.5826 55.9485C37.6001 55.942 37.6173 55.9352 37.6343 55.9276C37.6447 55.923 37.6549 55.9179 37.6651 55.9128C37.6803 55.9051 37.6953 55.8971 37.71 55.8886C37.7207 55.8824 37.7313 55.876 37.7418 55.8692C37.7557 55.8602 37.7693 55.8506 37.7826 55.8408C37.7926 55.8335 37.8025 55.8265 37.8122 55.8187C37.8283 55.8058 37.8435 55.7919 37.8585 55.7779C37.8645 55.7723 37.8709 55.7672 37.8767 55.7614C37.8975 55.7408 37.9168 55.719 37.9353 55.6962C37.9364 55.6949 37.9377 55.6938 37.9388 55.6924C37.9444 55.6855 37.9489 55.678 37.9542 55.671C37.9642 55.6578 37.9741 55.6446 37.9833 55.6307C37.9898 55.6208 37.9955 55.6107 38.0016 55.6007C38.0093 55.5877 38.0172 55.5748 38.0243 55.5613C38.0302 55.5502 38.0354 55.5388 38.0406 55.5274C38.0466 55.5146 38.0527 55.502 38.058 55.4887C38.063 55.4764 38.0673 55.4638 38.0717 55.4513C38.0762 55.4387 38.0807 55.4262 38.0845 55.4132C38.0885 55.3997 38.0917 55.386 38.095 55.3723C38.0979 55.3601 38.1011 55.348 38.1035 55.3355C38.1064 55.3205 38.1083 55.3055 38.1104 55.2905C38.1119 55.279 38.1138 55.2676 38.1149 55.2559C38.1164 55.2391 38.1169 55.2224 38.1174 55.2057C38.1177 55.197 38.1187 55.1886 38.1187 55.1798L38.1185 48.9115C39.449 47.8589 40.3057 46.2314 40.3057 44.4067ZM35.0879 52.3615C35.0879 52.3614 35.0878 52.3614 35.0878 52.3613L35.0762 52.352C35.0702 52.3473 35.0639 52.3433 35.0579 52.3387C35.0433 52.3277 35.0288 52.3168 35.0137 52.3069C35.0048 52.3011 34.9957 52.296 34.9867 52.2905C34.9728 52.2822 34.959 52.2738 34.9447 52.2663C34.9334 52.2604 34.9219 52.2552 34.9104 52.2499C34.8981 52.2441 34.8857 52.2382 34.8731 52.2332C34.8598 52.2277 34.8462 52.2231 34.8328 52.2184C34.8215 52.2145 34.8102 52.2104 34.7989 52.207C34.7845 52.2028 34.7701 52.1993 34.7555 52.1958C34.7444 52.1931 34.7331 52.1903 34.7219 52.188C34.7076 52.1853 34.6934 52.1832 34.6791 52.1812C34.6671 52.1795 34.6549 52.1777 34.6428 52.1765C34.6297 52.1752 34.6166 52.1747 34.6035 52.174C34.5898 52.1733 34.5763 52.1727 34.5626 52.1727C34.551 52.1727 34.5395 52.1733 34.5279 52.1739C34.5128 52.1745 34.4977 52.1752 34.4827 52.1767C34.4724 52.1777 34.4622 52.1793 34.452 52.1807C34.4359 52.1829 34.4199 52.1853 34.4039 52.1883C34.3944 52.1903 34.3849 52.1926 34.3754 52.1949C34.3593 52.1987 34.3433 52.2025 34.3273 52.2074C34.3173 52.2104 34.3074 52.2139 34.2975 52.2174C34.2827 52.2225 34.2679 52.2276 34.2534 52.2335C34.2417 52.2382 34.2303 52.2438 34.2188 52.249C34.2066 52.2547 34.1943 52.2603 34.1822 52.2666C34.1684 52.2739 34.155 52.2821 34.1414 52.2902C34.1321 52.2958 34.1227 52.3011 34.1135 52.3071C34.0984 52.3171 34.0839 52.328 34.0692 52.339C34.0632 52.3436 34.057 52.3475 34.0511 52.3522L34.0397 52.3614C34.0396 52.3615 34.0394 52.3616 34.0391 52.3618L32.6496 53.4735V49.8201C33.2487 50.0325 33.8926 50.1494 34.5635 50.1494C35.2344 50.1494 35.8783 50.0327 36.4774 49.8201L36.4775 53.4732L35.0879 52.3615ZM34.5635 48.5083C32.3018 48.5083 30.4619 46.6684 30.4619 44.4067C30.4619 42.1451 32.3018 40.3052 34.5635 40.3052C36.8251 40.3052 38.665 42.1451 38.665 44.4067C38.665 46.6684 36.8251 48.5083 34.5635 48.5083Z" fill="#57ACE6"/>
<path d="M34.5635 41.9456C33.2065 41.9456 32.1025 43.0495 32.1025 44.4065C32.1025 45.7635 33.2065 46.8674 34.5635 46.8674C35.9205 46.8674 37.0244 45.7635 37.0244 44.4065C37.0244 43.0495 35.9205 41.9456 34.5635 41.9456ZM34.5635 45.2268C34.1111 45.2268 33.7432 44.8589 33.7432 44.4065C33.7432 43.9541 34.1111 43.5862 34.5635 43.5862C35.0158 43.5862 35.3838 43.9541 35.3838 44.4065C35.3838 44.8589 35.0158 45.2268 34.5635 45.2268Z" fill="#57ACE6"/>
</g>
<defs>
<clipPath id="clip0">
<rect width="56" height="56" fill="white"/>
</clipPath>
</defs>
</svg>
