<svg width="237" height="237" viewBox="0 0 237 237" fill="none" xmlns="http://www.w3.org/2000/svg">
<g opacity="0.1" clip-path="url(#clip0)">
<path d="M198.479 209.72V233.05C198.479 235.232 196.711 237 194.529 237C192.348 237 190.58 235.232 190.58 233.05V209.72C190.58 191.554 175.88 176.854 157.713 176.854C149.117 176.854 141.318 172.475 136.85 165.139C135.715 163.276 136.306 160.846 138.169 159.712C140.031 158.576 142.461 159.167 143.596 161.03C146.619 165.992 151.896 168.955 157.713 168.955C180.244 168.953 198.479 187.187 198.479 209.72ZM137.811 180.479C123.615 192.43 102.14 188.761 92.7166 172.842C98.7738 168.842 102.992 162.228 103.606 154.447C137.323 164.374 171.054 139.07 171.325 104.177C171.327 104.089 171.326 89.102 171.326 89.0136C171.326 86.8325 169.558 85.0641 167.377 85.0641C165.195 85.0641 163.427 86.8325 163.427 89.0136V103.763C163.427 128.536 143.273 148.689 118.5 148.689C93.7277 148.689 73.574 128.536 73.574 103.763V71.7263C73.6076 64.9187 81.3088 61.9368 86.0502 66.0251C97.2192 75.6537 110.988 80.8005 124.723 81.4798C128.125 81.6462 130.139 77.6922 127.981 75.0415C125.969 72.5691 124.756 69.3329 124.883 65.9298C137.786 74.5004 152.852 78.1454 167.673 77.0301C169.848 76.8667 171.479 74.9704 171.315 72.7952C171.151 70.6209 169.259 68.9912 167.08 69.1532C152.175 70.2759 137.158 65.9782 124.918 56.1837C122.892 54.5639 119.887 55.3074 118.841 57.6643C116.78 62.3046 116.345 67.6617 117.952 72.768C107.996 70.972 98.8192 66.6037 91.2089 60.042C81.2515 51.4576 65.8027 58.3782 65.6768 71.4563L65.6758 97.3305C63.0375 95.9624 61.2321 93.2387 61.2321 90.1042C61.2321 90.044 61.2326 69.5595 61.2311 69.4993C61.0331 60.547 62.3093 38.0517 78.389 22.5516C96.3542 5.23366 124.464 5.22724 146.32 12.8455L143.164 14.1449C139.394 15.6956 140.182 21.2887 144.246 21.7241L151.189 22.4677C164.55 23.8984 176.366 30.8659 183.937 41.6927C178.968 47.7302 176.264 55.2452 176.264 63.1627V90.1037C176.264 92.2849 178.032 94.0533 180.213 94.0533C182.394 94.0533 184.163 92.2849 184.163 90.1037V63.1627C184.163 56.2988 186.813 49.8294 191.626 44.9472C192.966 43.5895 193.131 41.3985 192.196 39.8902C184.322 27.262 172.604 19.1308 159.232 15.8694C161.37 14.0718 161.006 10.616 158.463 9.3279C146.994 3.50375 130.492 -0.54013 115.016 0.0587254C75.5834 1.58721 52.5025 31.0358 53.3324 69.6301V90.1052C53.3324 97.6603 58.6184 104.011 65.7129 105.716C66.4504 125.888 78.5505 143.211 95.7904 151.454V152.494C95.7904 161.599 88.4126 168.955 79.2876 168.955C56.7513 168.955 38.5215 187.187 38.5215 209.72V233.051C38.5215 235.232 40.2899 237 42.4711 237C44.6522 237 46.4206 235.232 46.4206 233.051V209.72C46.4206 191.555 61.1205 176.854 79.2876 176.854C81.3715 176.854 83.4415 176.592 85.4618 176.068C97.0676 196.809 124.7 201.843 142.899 186.523C144.568 185.118 144.781 182.626 143.377 180.958C141.972 179.288 139.479 179.075 137.811 180.479Z" fill="#57ACE6"/>
</g>
<defs>
<clipPath >
<rect width="237" height="237" fill="white"/>
</clipPath>
</defs>
</svg>
