<svg width="95" height="95" viewBox="0 0 95 95" fill="none" xmlns="http://www.w3.org/2000/svg">
<g opacity="0.1">
<path d="M47.4986 53.5778C54.0531 53.5778 69.4634 45.6896 69.4634 26.7886C69.4637 11.9936 67.4665 0 47.4986 0C27.531 0 25.5338 11.9936 25.5338 26.7889C25.5338 45.6896 40.9442 53.5778 47.4986 53.5778ZM28.8166 22.318C30.3595 19.3341 33.6969 15.8858 40.8743 16.0388C40.8743 16.0388 45.1523 26.4156 66.1548 21.7556C66.2396 23.4132 66.2662 25.1044 66.2662 26.7889C66.2662 36.0276 62.1868 41.7521 58.7644 44.9273C54.4522 48.9284 49.6645 50.3806 47.4986 50.3806C45.3327 50.3806 40.5451 48.9284 36.2328 44.9273C32.8104 41.7521 28.731 36.0276 28.731 26.7889C28.7313 25.2943 28.753 23.7946 28.8166 22.318Z" fill="#57ACE6"/>
<path d="M88.2775 81.0514C87.1562 74.0786 84.8474 65.0968 80.217 61.9051C77.0551 59.725 66.0233 53.8311 61.3125 51.3142L61.231 51.2707C60.6925 50.983 60.035 51.0406 59.5547 51.4177C57.087 53.3551 54.3837 54.6608 51.5201 55.2984C51.0142 55.4112 50.5991 55.7706 50.4151 56.2551L47.4991 63.9414L44.5831 56.2551C44.3992 55.7706 43.984 55.4112 43.4782 55.2984C40.6146 54.6608 37.9113 53.3551 35.4436 51.4177C34.9632 51.0406 34.3057 50.9827 33.7672 51.2707C29.1124 53.758 17.9456 59.7721 14.7951 61.8956C9.46484 65.4864 7.13404 78.4826 6.72107 81.0514C6.68005 81.3062 6.70396 81.5668 6.78981 81.81C6.98053 82.3484 11.8725 94.9998 47.4991 94.9998C83.1257 94.9998 88.0177 82.3484 88.2084 81.81C88.2946 81.5668 88.3185 81.306 88.2775 81.0514ZM71.8605 76.7965L64.8871 78.97L57.9137 76.7965V73.0445H71.8605V76.7965Z" fill="#57ACE6"/>
</g>
</svg>
