<svg width="95" height="95" viewBox="0 0 95 95" fill="none" xmlns="http://www.w3.org/2000/svg">
<g opacity="0.1">
<path d="M1.29546 47.6233C0.274248 47.9994 -0.25213 49.1314 0.119878 50.1565L1.36281 53.5763L10.8267 44.1123L1.29546 47.6233Z" fill="#57ACE6"/>
<path d="M10.2516 78.0225L15.9514 93.6969C16.1295 94.1917 16.5015 94.5955 16.9765 94.8131C17.2416 94.9358 17.5266 94.9992 17.8116 94.9992C18.0452 94.9992 18.2747 94.9597 18.4964 94.8766L24.7861 92.5571L10.2516 78.0225Z" fill="#57ACE6"/>
<path d="M94.8786 64.6398L88.3555 46.7053L72.7009 62.3599L80.4589 59.502C81.4762 59.1141 82.624 59.6445 83.0001 60.6737C83.3801 61.6988 82.8537 62.8388 81.8284 63.2149L71.9725 66.8485C71.7469 66.9316 71.5174 66.9711 71.2877 66.9711C70.4841 66.9711 69.7241 66.4763 69.4313 65.6768C69.4274 65.6649 69.4313 65.6531 69.4274 65.6412L52.8386 82.23L93.703 67.173C94.7281 66.7971 95.2545 65.6649 94.8786 64.6398Z" fill="#57ACE6"/>
<path d="M94.4186 32.2457L62.753 0.580107C61.9812 -0.191741 60.7264 -0.191741 59.9545 0.580107L0.581572 59.953C-0.190276 60.7249 -0.190276 61.9797 0.581572 62.7515L32.2472 94.4171C32.6311 94.8051 33.1378 94.999 33.6445 94.999C34.1512 94.999 34.6577 94.8051 35.0457 94.421L94.4186 35.0481C95.1905 34.2724 95.1905 33.0215 94.4186 32.2457ZM23.1711 54.8392L15.2547 62.7554C14.8667 63.1393 14.3602 63.3334 13.8535 63.3334C13.3468 63.3334 12.8402 63.1395 12.4523 62.7554C11.6804 61.9836 11.6804 60.7288 12.4523 59.9569L20.3687 52.0405C21.1406 51.2686 22.3954 51.2686 23.1672 52.0405C23.9391 52.8125 23.943 54.0632 23.1711 54.8392ZM57.3501 57.3525C55.9489 58.7537 54.045 59.4266 51.9273 59.4266C48.4282 59.4266 44.3394 57.5941 40.9195 54.1701C38.4179 51.6685 36.6605 48.6761 35.9758 45.7471C35.2158 42.4816 35.8413 39.6397 37.7372 37.7398C39.6332 35.8398 42.4751 35.2144 45.7445 35.9784C48.6736 36.6632 51.666 38.4166 54.1675 40.9221C59.6656 46.416 61.0668 53.6357 57.3501 57.3525ZM82.5441 35.0481L74.6276 42.9646C74.2396 43.3485 73.7331 43.5425 73.2264 43.5425C72.7197 43.5425 72.2132 43.3486 71.8252 42.9646C71.0534 42.1927 71.0534 40.9379 71.8252 40.1661L79.7416 32.2496C80.5135 31.4778 81.7683 31.4778 82.5402 32.2496C83.312 33.0215 83.3159 34.2724 82.5441 35.0481Z" fill="#57ACE6"/>
</g>
</svg>
