<svg width="95" height="95" viewBox="0 0 95 95" fill="none" xmlns="http://www.w3.org/2000/svg">
<g opacity="0.1">
<path d="M93.9351 29.9119L48.4144 6.16187C47.8364 5.86499 47.1595 5.86499 46.5817 6.16187L1.06096 29.9119C0.411729 30.2523 0 30.9251 0 31.6655C0 32.4058 0.411729 33.0786 1.06485 33.4191L46.5856 57.1691C46.8706 57.3195 47.1833 57.3947 47.5 57.3947C47.8167 57.3947 48.1294 57.3195 48.4144 57.1691L93.9351 33.4191C94.5883 33.0786 95 32.4058 95 31.6655C95 30.9251 94.5883 30.2523 93.9351 29.9119Z" fill="#57ACE6"/>
<path d="M93.9351 45.7446L86.4025 41.814L50.2431 60.6794C49.392 61.1227 48.4461 61.3524 47.5 61.3524C46.5539 61.3524 45.608 61.1229 44.7687 60.6874L8.5975 41.814L1.06485 45.7446C0.411729 46.0851 0 46.758 0 47.4982C0 48.2383 0.411729 48.9113 1.06485 49.2518L46.5856 73.0018C46.8706 73.1523 47.1833 73.2274 47.5 73.2274C47.8167 73.2274 48.1294 73.1523 48.4144 73.0018L93.9351 49.2518C94.5883 48.9113 95 48.2385 95 47.4982C95 46.758 94.5883 46.0851 93.9351 45.7446Z" fill="#57ACE6"/>
<path d="M93.9351 61.5778L86.4025 57.6472L50.2431 76.5127C49.392 76.956 48.4461 77.1857 47.5 77.1857C46.5539 77.1857 45.608 76.9562 44.7687 76.5207L8.5975 57.6472L1.06485 61.5778C0.411729 61.9181 0 62.5911 0 63.3313C0 64.0714 0.411729 64.7444 1.06485 65.0849L46.5856 88.8349C46.8706 88.9853 47.1833 89.0605 47.5 89.0605C47.8167 89.0605 48.1294 88.9853 48.4144 88.8349L93.9351 65.0849C94.5883 64.7444 95 64.0716 95 63.3313C95 62.5911 94.5883 61.9181 93.9351 61.5778Z" fill="#57ACE6"/>
</g>
</svg>
