<svg width="95" height="95" viewBox="0 0 95 95" fill="none" xmlns="http://www.w3.org/2000/svg">
<g opacity="0.1" clip-path="url(#clip0)">
<path d="M90.7435 42.2373H90.5116L80.8171 19.7278C80.147 18.1656 78.6165 17.1625 76.9136 17.1625H65.2088V10.7015C65.2088 8.3502 63.3076 6.44897 60.9543 6.44897H34.0358C31.6865 6.44897 29.7853 8.3502 29.7853 10.7015V17.1605H18.0865C16.3874 17.1605 14.855 18.1636 14.1849 19.7259L4.48841 42.2373H4.25051C1.90321 42.2373 0 44.1385 0 46.4878V53.5317V72.1732C0 74.5284 1.90321 76.4257 4.25051 76.4257H5.84841V84.2983C5.84841 86.6495 7.74964 88.5527 10.0989 88.5527H20.3188C22.6661 88.5527 24.5713 86.6495 24.5713 84.2983V76.4257H70.4287V84.2983C70.4287 86.6495 72.3339 88.5527 74.6832 88.5527H84.8991C87.2543 88.5527 89.1516 86.6495 89.1516 84.2983V76.4257H90.7495C93.1047 76.4257 95.002 74.5284 95.002 72.1732V53.5317V46.4878C94.996 44.1385 93.0988 42.2373 90.7435 42.2373ZM20.8858 25.6575H74.1182L81.2612 42.2373H13.7487L20.8858 25.6575ZM18.4215 67.6531C13.8241 67.6531 10.0969 63.9279 10.0969 59.3305C10.0969 54.737 13.8221 51.0099 18.4215 51.0099C23.015 51.0099 26.7401 54.737 26.7401 59.3305C26.7401 63.9279 23.015 67.6531 18.4215 67.6531ZM76.3426 67.6531C71.7511 67.6531 68.02 63.9279 68.02 59.3305C68.02 54.737 71.7451 51.0099 76.3426 51.0099C80.9361 51.0099 84.6612 54.737 84.6612 59.3305C84.6612 63.9279 80.9361 67.6531 76.3426 67.6531Z" fill="#57ACE6"/>
</g>
<defs>
<clipPath id="clip0">
<rect width="95" height="95" fill="white"/>
</clipPath>
</defs>
</svg>
